<svg width="469" height="452" viewBox="0 0 469 452" fill="none" xmlns="http://www.w3.org/2000/svg">
<g clip-path="url(#clip0_124_110)">
<path d="M109.928 305.362C109.062 306.802 107.698 307.874 106.094 308.374C104.49 308.874 102.759 308.768 101.229 308.075C99.6987 307.382 98.4759 306.151 97.7926 304.615C97.1093 303.08 97.0131 301.347 97.5223 299.745L71.0332 245.28L83.7129 237.584L106.589 295.437C106.677 295.471 106.763 295.507 106.848 295.544C106.933 295.582 107.017 295.621 107.101 295.661L107.355 295.788C107.44 295.83 107.522 295.878 107.602 295.929C109.16 296.87 110.28 298.392 110.717 300.16C111.154 301.928 110.872 303.798 109.932 305.357L109.928 305.362Z" fill="#FEB8B8"/>
<path d="M76.09 266.281L94.9072 261.453C94.9072 261.453 94.2926 260.063 93.2941 257.76C92.2956 255.457 90.9005 252.243 89.3311 248.6C87.7617 244.956 86.0207 240.88 84.3195 236.853C82.6184 232.826 80.9616 228.848 79.5715 225.399C78.1815 221.951 76.5937 219.883 75.0054 218.728C73.6888 217.726 72.0306 217.285 70.391 217.5C69.1168 217.69 67.8988 218.154 66.8208 218.86C66.3105 219.178 65.8307 219.543 65.3877 219.949L61.0249 227.89L76.09 266.281Z" fill="#CCCCCC"/>
<path d="M57.3901 412.978L68.906 412.933L65.1926 443.049L57.3901 443.088V412.978Z" fill="#FEB8B8"/>
<path d="M55.4005 450.665L80.5451 450.532V450.215C80.5448 449.569 80.4812 448.925 80.3551 448.291C80.1078 447.041 79.6151 445.853 78.9054 444.795C78.1846 443.723 77.2607 442.803 76.1861 442.087C75.1257 441.381 73.9359 440.893 72.6856 440.651C72.0518 440.529 71.4076 440.47 70.7621 440.474L55.3979 440.549L55.4005 450.665Z" fill="#2F2E41"/>
<path d="M94.2627 412.836L105.746 412.791L102.044 442.866L94.2633 442.905L94.2627 412.836Z" fill="#FEB8B8"/>
<path d="M92.2791 450.47L117.358 450.338V450.021C117.357 449.376 117.294 448.733 117.168 448.1C116.921 446.852 116.43 445.665 115.722 444.609C115.003 443.538 114.082 442.618 113.009 441.903C111.952 441.199 110.765 440.712 109.518 440.471C108.886 440.349 108.243 440.29 107.6 440.294L92.2778 440.368L92.2791 450.47Z" fill="#2F2E41"/>
<path d="M94.7506 289.744L114.06 361.865L106.992 430.998L91.3426 431.43L94.75 369.007L75.2264 337.854L70.9922 431.854L56.7944 430.851L48.8994 350.028C46.2172 343.718 44.2501 337.126 43.0351 330.376C42.0801 325.078 41.6156 319.704 41.6475 314.32C41.6636 310.696 41.9418 307.078 42.4801 303.494C42.6723 302.159 42.9327 300.834 43.26 299.525L49.0173 293.683L94.7506 289.744Z" fill="#2F2E41"/>
<path d="M69.1668 301.806C72.4139 301.806 75.4614 301.702 78.2269 301.496C81.0493 301.302 83.8568 300.933 86.6332 300.389C88.9969 299.947 91.2988 299.222 93.4891 298.229C95.2524 297.466 96.7856 296.256 97.9362 294.716L98.0679 294.526L92.7903 260.149L87.0989 221.496C86.7249 218.938 85.4238 216.606 83.4435 214.946C81.4632 213.285 78.942 212.412 76.3598 212.492L58.5348 213.038C55.8865 213.119 53.3789 214.25 51.5636 216.182C49.7483 218.113 48.7741 220.688 48.8553 223.338C48.8583 223.439 48.8629 223.539 48.869 223.64L51.2088 262.08L42.5776 300L43.189 300.085C43.4349 300.118 44.3821 300.243 45.8659 300.41C47.8053 300.628 49.7858 300.825 51.7518 300.995C54.5332 301.234 57.2556 301.423 59.8419 301.556C63.1194 301.722 66.2632 301.803 69.1668 301.806Z" fill="#CCCCCC"/>
<path d="M79.0582 205.662H79.0721C79.8274 205.661 80.5512 205.36 81.0848 204.825C81.6184 204.29 81.9181 203.565 81.9181 202.809V186.905C81.9209 184.055 81.3512 181.234 80.2429 178.61C78.072 173.487 74.0094 169.4 68.902 167.202C65.6723 165.816 62.1494 165.252 58.6489 165.563C55.1484 165.874 51.7795 167.048 48.8439 168.982C45.9083 170.915 43.4976 173.547 41.8277 176.642C40.1578 179.737 39.2809 183.197 39.2754 186.715V202.644C39.2749 203.027 39.3516 203.407 39.501 203.76C39.7935 204.449 40.3406 204.997 41.0279 205.292C41.3806 205.443 41.76 205.521 42.1436 205.522L79.0582 205.662Z" fill="#2F2E41"/>
<path d="M50.9711 181.45C49.4842 184.168 48.8354 187.267 49.1066 190.354C49.3779 193.44 50.5572 196.378 52.4954 198.794C54.4336 201.211 57.0439 202.998 59.9966 203.931C62.9492 204.864 66.1119 204.9 69.085 204.035C71.0541 203.469 72.8913 202.517 74.4903 201.235C76.0892 199.953 77.4181 198.366 78.3998 196.567C79.8832 193.85 80.5295 190.754 80.2575 187.67C79.9854 184.586 78.8071 181.652 76.871 179.237C74.935 176.822 72.3279 175.035 69.3785 174.101C66.4291 173.167 63.2695 173.128 60.298 173.989C58.3274 174.553 56.4884 175.503 54.8876 176.784C53.2867 178.065 51.9559 179.651 50.9724 181.451L50.9711 181.45Z" fill="#FEB8B8"/>
<path d="M86.959 188.2C86.961 185.946 86.5102 183.715 85.6336 181.639C83.9174 177.589 80.7054 174.358 76.6672 172.62C74.5954 171.731 72.3663 171.269 70.1123 171.26L66.9317 171.244H66.8247C62.3766 171.247 58.1118 173.018 54.9685 176.168C51.8252 179.318 50.0608 183.589 50.0635 188.041V188.358L56.792 188.385L59.0862 181.97L59.5449 188.398L63.0201 188.413L64.177 185.179L64.4089 188.42L86.9559 188.521L86.959 188.2Z" fill="#2F2E41"/>
<path d="M114.048 221.659C115.084 221.913 116.052 222.389 116.886 223.054C117.538 223.57 118.096 224.196 118.534 224.903C119.398 226.303 119.779 227.949 119.618 229.586C119.536 230.414 119.312 231.221 118.955 231.971C118.515 232.907 117.882 233.738 117.097 234.41C116.312 235.083 115.394 235.581 114.402 235.872C113.411 236.163 112.369 236.24 111.346 236.099C110.323 235.957 109.341 235.6 108.466 235.05C108.401 235.008 108.338 234.966 108.276 234.924C108.214 234.881 108.151 234.838 108.089 234.792C108.028 234.747 107.968 234.702 107.908 234.656C107.849 234.61 107.79 234.563 107.731 234.515L70.6039 247.741C69.4615 248.147 68.2179 248.172 67.0605 247.81C65.9031 247.448 64.8945 246.72 64.1864 245.734L55.3804 233.536L66.0244 226.364L71.6075 232.712L105.587 225.947C105.625 225.858 105.663 225.77 105.703 225.683C105.742 225.596 105.785 225.509 105.829 225.423C105.872 225.338 105.917 225.252 105.965 225.165C106.013 225.078 106.062 224.994 106.113 224.912C106.923 223.601 108.128 222.58 109.553 221.996C110.979 221.412 112.553 221.294 114.049 221.66L114.048 221.659Z" fill="#FEB8B8"/>
<path d="M71.0088 228.706C69.8982 227.319 68.3478 225.518 66.7677 223.731C65.1876 221.944 63.589 220.174 62.3808 218.848C61.1726 217.523 60.3604 216.646 60.3604 216.646C59.2455 214.959 57.5814 213.71 55.651 213.112C53.7205 212.514 51.6426 212.603 49.7702 213.364C47.8978 214.125 46.3464 215.511 45.3795 217.287C44.4126 219.063 44.0898 221.12 44.4659 223.107C44.6808 224.251 45.1247 225.34 45.771 226.308C45.771 226.308 46.9824 227.893 48.8122 230.262C50.642 232.631 53.0869 235.783 55.5547 238.916C58.0225 242.05 60.5143 245.168 62.4353 247.469C64.3563 249.77 65.709 251.257 65.8991 251.13L72.6004 231.192C72.7898 231.064 72.1195 230.094 71.0088 228.706Z" fill="#CCCCCC"/>
<path d="M67.0303 205.161C67.1357 205.675 67.0948 206.208 66.9124 206.7C66.8208 206.952 66.6943 207.19 66.5367 207.407C66.4019 207.592 66.2459 207.76 66.0717 207.908C65.5553 208.345 64.9002 208.583 64.2241 208.58C64.1819 208.58 64.1397 208.579 64.0974 208.576C64.0552 208.574 64.013 208.571 63.9707 208.567C63.9285 208.564 63.8862 208.559 63.844 208.553C63.8018 208.547 63.7595 208.541 63.7173 208.533L61.3293 208.099L58.0398 201.065V207.508L47.1816 205.551V178.211L65.3842 178.299L64.9344 178.822C63.4407 180.577 62.4598 182.711 62.0998 184.988C61.7466 187.295 61.791 189.645 62.2309 191.936C62.6585 194.254 63.3075 196.527 64.169 198.721C64.9221 200.665 65.7864 202.564 66.7578 204.409C66.8833 204.645 66.9751 204.899 67.0303 205.161Z" fill="#2F2E41"/>
<path d="M468.309 452H0V450.665H469L468.309 452Z" fill="#CACACA"/>
<path d="M344.179 107.095H341.708V39.2605C341.708 28.848 337.576 18.8619 330.219 11.4991C322.862 4.13636 312.885 5.12131e-09 302.481 5.12131e-09H158.881C153.73 -8.32671e-05 148.629 1.01534 143.869 2.98828C139.11 4.96123 134.786 7.85307 131.143 11.4987C127.5 15.1443 124.611 19.4723 122.639 24.2356C120.668 28.9988 119.653 34.1041 119.653 39.2599V411.405C119.653 416.561 120.667 421.666 122.639 426.429C124.61 431.192 127.5 435.52 131.142 439.166C134.785 442.812 139.109 445.704 143.869 447.677C148.628 449.65 153.729 450.665 158.881 450.665H302.479C312.883 450.665 322.86 446.529 330.217 439.166C337.574 431.803 341.707 421.817 341.707 411.405V155.381H344.178L344.179 107.095Z" fill="#3F3D56"/>
<path d="M333.708 36.6309V414.033C333.707 421.928 330.574 429.499 324.997 435.082C319.419 440.665 311.855 443.803 303.967 443.806H157.422C149.53 443.807 141.962 440.671 136.381 435.087C130.8 429.504 127.663 421.931 127.661 414.033V36.6309C127.663 28.7335 130.8 21.1603 136.38 15.5772C141.961 9.99406 149.529 6.85812 157.42 6.85913H175.197C174.324 9.00746 173.992 11.3375 174.23 13.6444C174.467 15.9514 175.267 18.1646 176.56 20.0895C177.852 22.0145 179.597 23.5922 181.642 24.6841C183.686 25.776 185.967 26.3485 188.284 26.3515H271.832C274.15 26.3485 276.431 25.776 278.475 24.6841C280.519 23.5922 282.264 22.0145 283.557 20.0895C284.849 18.1646 285.649 15.9514 285.887 13.6444C286.125 11.3375 285.792 9.00746 284.919 6.85913H303.961C311.849 6.86048 319.414 9.99679 324.992 15.5785C330.57 21.1603 333.706 28.7306 333.708 36.6252V36.6309Z" fill="white"/>
<path d="M232.256 187.614C215.571 187.621 199.567 180.994 187.764 169.191C175.961 157.388 169.326 141.376 169.318 124.677V124.621C169.318 124.49 169.318 124.351 169.326 124.219C169.516 89.7236 197.75 61.6328 232.256 61.6328C248.948 61.6319 264.956 68.2674 276.76 80.0797C288.564 91.8919 295.196 107.913 295.197 124.619C295.197 141.325 288.567 157.347 276.765 169.161C264.963 180.974 248.955 187.612 232.263 187.613H232.256V187.614ZM232.256 62.9581C215.989 62.9945 200.394 69.4538 188.859 80.9324C177.324 92.4111 170.781 107.982 170.651 124.261C170.644 124.402 170.644 124.515 170.644 124.622C170.643 136.82 174.255 148.744 181.025 158.886C187.795 169.029 197.418 176.935 208.677 181.604C219.936 186.273 232.325 187.496 244.279 185.118C256.232 182.74 267.212 176.867 275.831 168.243C284.45 159.62 290.32 148.631 292.699 136.669C295.078 124.706 293.86 112.306 289.197 101.036C284.535 89.7664 276.638 80.1337 266.505 73.3559C256.373 66.578 244.459 62.9596 232.272 62.9581H232.256Z" fill="#CCCCCC"/>
<path d="M297.337 253.842H167.115C166.475 253.841 165.862 253.587 165.41 253.135C164.958 252.682 164.704 252.069 164.703 251.429V219.1C164.704 218.46 164.958 217.846 165.41 217.394C165.862 216.942 166.475 216.687 167.115 216.686H297.337C297.977 216.687 298.59 216.942 299.042 217.394C299.494 217.846 299.748 218.46 299.749 219.1V251.429C299.748 252.069 299.494 252.683 299.042 253.135C298.59 253.587 297.977 253.842 297.337 253.843V253.842ZM167.115 217.651C166.731 217.652 166.363 217.804 166.092 218.076C165.82 218.347 165.668 218.716 165.667 219.1V251.429C165.668 251.813 165.82 252.182 166.092 252.453C166.363 252.725 166.731 252.877 167.115 252.878H297.337C297.721 252.877 298.089 252.725 298.36 252.453C298.632 252.182 298.784 251.813 298.785 251.429V219.1C298.784 218.716 298.632 218.347 298.36 218.076C298.089 217.804 297.721 217.652 297.337 217.651H167.115Z" fill="#E6E6E6"/>
<path d="M183.995 245.4C189.589 245.4 194.123 240.862 194.123 235.264C194.123 229.665 189.589 225.127 183.995 225.127C178.401 225.127 173.867 229.665 173.867 235.264C173.867 240.862 178.401 245.4 183.995 245.4Z" fill="#CCCCCC"/>
<path d="M207.387 228.506C206.94 228.506 206.51 228.684 206.194 229.001C205.877 229.318 205.699 229.747 205.699 230.195C205.699 230.644 205.877 231.073 206.194 231.39C206.51 231.707 206.94 231.885 207.387 231.885H286.967C287.415 231.902 287.851 231.741 288.179 231.436C288.508 231.132 288.702 230.709 288.719 230.261C288.736 229.813 288.575 229.377 288.271 229.048C287.967 228.719 287.544 228.525 287.097 228.508C287.072 228.507 287.047 228.506 287.023 228.506H207.387V228.506Z" fill="#E6E6E6"/>
<path d="M207.387 238.642C206.94 238.642 206.51 238.82 206.194 239.137C205.877 239.454 205.699 239.884 205.699 240.332C205.699 240.78 205.877 241.21 206.194 241.526C206.51 241.843 206.94 242.021 207.387 242.021H286.967C287.415 242.038 287.851 241.877 288.179 241.572C288.508 241.268 288.702 240.845 288.719 240.397C288.736 239.949 288.575 239.513 288.271 239.184C287.967 238.855 287.544 238.661 287.097 238.644C287.072 238.643 287.047 238.643 287.023 238.643L207.387 238.642Z" fill="#E6E6E6"/>
<path d="M297.337 307.905H167.115C166.475 307.904 165.862 307.65 165.41 307.198C164.958 306.745 164.704 306.132 164.703 305.492V273.163C164.704 272.523 164.958 271.909 165.41 271.457C165.862 271.005 166.475 270.75 167.115 270.749H297.337C297.977 270.75 298.59 271.005 299.042 271.457C299.494 271.909 299.748 272.523 299.749 273.163V305.492C299.748 306.132 299.493 306.745 299.041 307.198C298.589 307.65 297.977 307.904 297.337 307.905ZM167.115 271.714C166.731 271.715 166.363 271.867 166.092 272.139C165.82 272.41 165.668 272.779 165.667 273.163V305.492C165.668 305.876 165.82 306.245 166.092 306.516C166.363 306.788 166.731 306.94 167.115 306.941H297.337C297.721 306.94 298.089 306.788 298.36 306.516C298.632 306.245 298.784 305.876 298.785 305.492V273.163C298.784 272.779 298.632 272.41 298.36 272.139C298.089 271.867 297.721 271.715 297.337 271.714H167.115Z" fill="#E6E6E6"/>
<path d="M183.995 299.464C189.589 299.464 194.123 294.926 194.123 289.327C194.123 283.729 189.589 279.19 183.995 279.19C178.401 279.19 173.867 283.729 173.867 289.327C173.867 294.926 178.401 299.464 183.995 299.464Z" fill="#CCCCCC"/>
<path d="M207.387 282.567C206.94 282.567 206.51 282.745 206.194 283.062C205.877 283.379 205.699 283.809 205.699 284.257C205.699 284.705 205.877 285.135 206.194 285.451C206.51 285.768 206.94 285.946 207.387 285.946H286.967C287.409 285.944 287.832 285.768 288.145 285.458C288.459 285.147 288.639 284.726 288.646 284.284C288.653 283.842 288.487 283.415 288.184 283.095C287.881 282.774 287.464 282.585 287.023 282.568L207.387 282.567Z" fill="#E6E6E6"/>
<path d="M207.387 292.706C206.94 292.706 206.51 292.884 206.194 293.201C205.877 293.518 205.699 293.947 205.699 294.395C205.699 294.843 205.877 295.273 206.194 295.59C206.51 295.907 206.94 296.085 207.387 296.085H286.967C287.409 296.082 287.832 295.907 288.145 295.596C288.459 295.286 288.639 294.864 288.646 294.423C288.653 293.981 288.487 293.554 288.184 293.233C287.881 292.912 287.464 292.723 287.023 292.706L207.387 292.706Z" fill="#E6E6E6"/>
<path d="M297.337 361.967H167.115C166.475 361.967 165.862 361.712 165.41 361.26C164.958 360.807 164.704 360.194 164.703 359.554V327.225C164.704 326.585 164.958 325.972 165.41 325.519C165.862 325.067 166.475 324.812 167.115 324.812H297.337C297.977 324.812 298.59 325.067 299.042 325.519C299.494 325.972 299.748 326.585 299.749 327.225V359.555C299.748 360.194 299.494 360.808 299.042 361.26C298.59 361.713 297.977 361.967 297.337 361.968V361.967ZM167.115 325.777C166.731 325.777 166.363 325.93 166.092 326.201C165.82 326.473 165.668 326.841 165.667 327.225V359.555C165.668 359.939 165.82 360.307 166.092 360.578C166.363 360.85 166.731 361.003 167.115 361.003H297.337C297.721 361.003 298.089 360.85 298.36 360.578C298.632 360.307 298.784 359.939 298.785 359.555V327.225C298.784 326.841 298.632 326.473 298.36 326.201C298.089 325.93 297.721 325.777 297.337 325.777H167.115Z" fill="#E6E6E6"/>
<path d="M183.995 353.527C189.589 353.527 194.123 348.989 194.123 343.39C194.123 337.792 189.589 333.253 183.995 333.253C178.401 333.253 173.867 337.792 173.867 343.39C173.867 348.989 178.401 353.527 183.995 353.527Z" fill="#CCCCCC"/>
<path d="M207.387 336.631C206.94 336.631 206.51 336.809 206.194 337.126C205.877 337.443 205.699 337.873 205.699 338.321C205.699 338.769 205.877 339.199 206.194 339.516C206.51 339.832 206.94 340.01 207.387 340.01H286.967C287.415 340.028 287.851 339.866 288.179 339.562C288.508 339.257 288.702 338.834 288.719 338.387C288.736 337.939 288.575 337.502 288.271 337.174C287.967 336.845 287.544 336.65 287.097 336.633C287.072 336.632 287.047 336.632 287.023 336.632L207.387 336.631Z" fill="#E6E6E6"/>
<path d="M207.387 346.769C206.94 346.769 206.51 346.947 206.194 347.263C205.877 347.58 205.699 348.01 205.699 348.458C205.699 348.906 205.877 349.336 206.194 349.653C206.51 349.97 206.94 350.148 207.387 350.148H286.967C287.189 350.156 287.41 350.121 287.618 350.044C287.826 349.967 288.017 349.85 288.179 349.699C288.342 349.548 288.474 349.367 288.566 349.165C288.659 348.963 288.711 348.746 288.719 348.524C288.728 348.302 288.693 348.081 288.616 347.873C288.539 347.664 288.422 347.474 288.271 347.311C288.12 347.148 287.939 347.016 287.738 346.924C287.536 346.831 287.318 346.779 287.097 346.77C287.072 346.769 287.047 346.769 287.023 346.769L207.387 346.769Z" fill="#E6E6E6"/>
<path d="M154.192 274.234H178.2C179.702 263.144 176.389 252.792 178.2 245.4H154.192C149.672 255.012 149.672 264.623 154.192 274.234Z" fill="#FF6584"/>
<path d="M310.058 329.874H286.05C286.95 318.788 289.851 308.435 286.05 301.04H310.058C314.578 310.651 314.578 320.262 310.058 329.874Z" fill="#6C63FF"/>
<path d="M265.65 385.739H241.642C242.542 374.653 245.443 364.3 241.642 356.906H265.65C270.17 366.516 270.17 376.128 265.65 385.739Z" fill="#6C63FF"/>
<path d="M264.42 178.954C254.55 184.946 243.156 187.944 231.618 187.585C220.08 187.226 208.894 183.526 199.415 176.932C201.403 172.746 204.535 169.211 208.448 166.734C212.362 164.257 216.897 162.941 221.527 162.938H241.458C246.463 162.937 251.347 164.473 255.454 167.337C259.56 170.201 262.689 174.257 264.421 178.956L264.42 178.954Z" fill="#6C63FF"/>
<path d="M205.068 121.126C208.082 111.511 214.938 102.692 224.418 99.4393C233.898 96.1864 250.438 99.2269 254.909 108.25C261.351 121.253 258.457 137.177 255.04 151.296C253.259 151.201 251.461 151.127 249.655 151.06L247.104 142.551V150.976C233.029 150.54 218.376 150.813 203.715 151.095C202.404 141.102 202.053 130.741 205.068 121.126Z" fill="#2F2E41"/>
<path d="M225.724 152.076C237.645 152.076 247.308 142.405 247.308 130.474C247.308 118.544 237.645 108.872 225.724 108.872C213.804 108.872 204.14 118.544 204.14 130.474C204.14 142.405 213.804 152.076 225.724 152.076Z" fill="#FEB8B8"/>
<path d="M211.645 104.447C215.552 102.064 220.027 100.774 224.602 100.714C229.177 100.653 233.685 101.824 237.653 104.104C241.621 106.384 244.905 109.689 247.16 113.673C249.415 117.658 250.559 122.176 250.473 126.754C239.107 127.278 227.168 127.414 215.062 127.437L212.199 120.429L210.512 127.442C206.824 127.442 203.128 127.437 199.425 127.427C199.274 122.862 200.323 118.336 202.468 114.304C204.612 110.271 207.777 106.872 211.645 104.447Z" fill="#2F2E41"/>
</g>
<defs>
<clipPath id="clip0_124_110">
<rect width="469" height="452" fill="white"/>
</clipPath>
</defs>
</svg>
