<svg width="87" height="87" viewBox="0 0 87 87" fill="none" xmlns="http://www.w3.org/2000/svg">
<path d="M43.5 81.5625C64.5213 81.5625 81.5625 64.5213 81.5625 43.5C81.5625 22.4787 64.5213 5.4375 43.5 5.4375C22.4787 5.4375 5.4375 22.4787 5.4375 43.5C5.4375 64.5213 22.4787 81.5625 43.5 81.5625Z" fill="url(#paint0_linear_45_1319)"/>
<path d="M57.6747 55.1406L59.3655 44.3975H48.7885V37.429C48.7885 34.4892 50.2634 31.6221 55.0009 31.6221H59.8125V22.4759C59.8125 22.4759 55.4475 21.75 51.2764 21.75C42.5615 21.75 36.8709 26.8964 36.8709 36.2094V44.3975H27.1875V55.1406H36.8709V81.1125C38.8148 81.4102 40.8035 81.5625 42.8296 81.5625C44.8556 81.5625 46.8446 81.4102 48.7885 81.1125V55.1406H57.6747Z" fill="white"/>
<defs>
<linearGradient id="paint0_linear_45_1319" x1="43.5" y1="5.4375" x2="43.5" y2="81.3368" gradientUnits="userSpaceOnUse">
<stop stop-color="#18ACFE"/>
<stop offset="1" stop-color="#0163E0"/>
</linearGradient>
</defs>
</svg>
