<svg width="569" height="384" viewBox="0 0 569 384" fill="none" xmlns="http://www.w3.org/2000/svg">
<g clip-path="url(#clip0_63_1689)">
<path d="M106.299 143.122L86.9536 143.409L92.5867 125.553L105.363 128.22C103.331 132.568 103.764 137.567 106.299 143.122Z" fill="#FFB9B9"/>
<path d="M557.027 72.4832L555.079 72.7361L568.141 23.7408C569.103 20.4691 569.26 17.0133 568.597 13.6681C568.022 10.9349 566.601 8.45196 564.535 6.57159C562.37 4.69047 559.718 3.45929 556.884 3.02012C553.432 2.48587 549.908 2.64354 546.518 3.48394L457.745 23.6911C454.647 24.4425 451.681 25.6619 448.951 27.3072C445.981 29.0721 443.219 31.165 440.717 33.5464C438.143 35.9747 435.832 38.6676 433.823 41.5805C431.861 44.3996 430.261 47.4541 429.061 50.6723L336.18 305.994C334.636 310.193 333.633 314.57 333.195 319.022C332.788 322.973 332.98 326.964 333.763 330.859C334.418 334.243 335.784 337.449 337.772 340.265C339.596 342.826 342.164 344.762 345.129 345.811L438.923 378.082C443.09 379.5 447.563 379.766 451.868 378.852C456.471 377.85 460.8 375.858 464.554 373.015C468.769 369.849 472.394 365.966 475.263 361.545C478.44 356.687 480.813 351.349 482.293 345.737L545.176 109.872L547.148 109.715L557.027 72.4832Z" fill="#2F2E41"/>
<path d="M550.241 69.7706L548.293 70.0234L561.356 21.0282C562.318 17.7565 562.475 14.3008 561.813 10.9555C561.238 8.22225 559.816 5.7393 557.75 3.85895C555.586 1.97784 552.934 0.746653 550.099 0.307489C546.647 -0.226786 543.124 -0.0691165 539.734 0.77131L450.96 20.9784C447.861 21.7298 444.896 22.9492 442.165 24.5945C439.196 26.3595 436.434 28.4523 433.932 30.8337C431.357 33.262 429.047 35.955 427.038 38.8679C425.075 41.6869 423.476 44.7415 422.276 47.9596L329.394 303.282C327.85 307.48 326.847 311.858 326.409 316.309C326.003 320.261 326.194 324.251 326.978 328.146C327.632 331.53 328.999 334.736 330.987 337.552C332.81 340.113 335.379 342.05 338.344 343.098L432.138 375.369C436.305 376.787 440.777 377.054 445.083 376.14C449.685 375.138 454.014 373.146 457.768 370.302C461.984 367.136 465.609 363.254 468.477 358.832C471.654 353.974 474.028 348.637 475.508 343.025L538.39 107.16L540.363 107.002L550.241 69.7706Z" fill="#090814"/>
<path d="M538.948 7.16614L525.898 10.0229C526.041 11.1512 525.928 12.2971 525.569 13.3762C525.163 14.6392 524.573 15.8357 523.819 16.9277C522.123 19.4052 519.858 21.4418 517.215 22.8679C516.898 23.036 516.583 23.1913 516.268 23.3338C515.953 23.4764 515.639 23.6056 515.325 23.7216C515.012 23.8377 514.701 23.9402 514.392 24.0292C514.083 24.1182 513.777 24.1933 513.476 24.2544L462.456 34.5792C461.509 34.7989 460.523 34.7877 459.582 34.5465C458.824 34.3433 458.156 33.8934 457.682 33.268C457.205 32.5962 456.936 31.7992 456.908 30.9759C456.869 29.9256 457.035 28.8778 457.397 27.8911C457.487 27.6249 457.59 27.3569 457.706 27.087C457.822 26.8171 457.948 26.5472 458.085 26.2773C458.22 26.0059 458.368 25.736 458.529 25.4675C458.69 25.199 458.859 24.9308 459.037 24.6628L449.376 26.7766C447.049 27.3217 444.819 28.223 442.767 29.4487C440.525 30.7684 438.441 32.3383 436.554 34.1281C434.608 35.9568 432.864 37.9873 431.349 40.1855C429.872 42.3097 428.672 44.6129 427.776 47.0398L335.072 304.579C333.918 307.743 333.178 311.043 332.868 314.397C332.582 317.357 332.749 320.344 333.366 323.254C333.88 325.768 334.93 328.142 336.445 330.214C337.833 332.095 339.77 333.501 341.988 334.239L436.474 364.919C439.591 365.918 442.919 366.067 446.113 365.351C449.515 364.572 452.711 363.074 455.484 360.957C458.586 358.609 461.257 355.741 463.377 352.48C465.723 348.898 467.484 344.966 468.593 340.831L554.922 22.4531C555.647 20.0227 555.781 17.4548 555.314 14.9623C554.908 12.9197 553.875 11.0545 552.357 9.6273C550.767 8.20037 548.804 7.25467 546.696 6.90048C544.122 6.46806 541.486 6.55842 538.948 7.16614Z" fill="white"/>
<path d="M488.278 129.141H300.325V65.4868H488.281L488.278 129.141Z" fill="white"/>
<path d="M433.326 151.607H249.118V240.848H433.326V151.607Z" fill="white"/>
<path d="M279.044 194.462C286.403 194.462 292.368 188.5 292.368 181.145C292.368 173.791 286.403 167.829 279.044 167.829C271.685 167.829 265.719 173.791 265.719 181.145C265.719 188.5 271.685 194.462 279.044 194.462Z" fill="#39B772"/>
<path d="M309.817 172.267C309.235 172.278 308.68 172.516 308.272 172.931C307.864 173.346 307.636 173.905 307.636 174.487C307.636 175.068 307.864 175.627 308.272 176.042C308.68 176.457 309.235 176.696 309.817 176.706H414.509C415.091 176.696 415.646 176.457 416.054 176.042C416.462 175.627 416.691 175.068 416.691 174.487C416.691 173.905 416.462 173.346 416.054 172.931C415.646 172.516 415.091 172.278 414.509 172.267H309.817Z" fill="#E6E6E6"/>
<path d="M309.818 185.584C309.236 185.593 308.68 185.83 308.271 186.245C307.863 186.659 307.633 187.217 307.632 187.799C307.63 188.381 307.858 188.94 308.265 189.356C308.672 189.772 309.226 190.011 309.808 190.023H354.868C355.45 190.012 356.004 189.774 356.412 189.359C356.82 188.944 357.049 188.385 357.049 187.803C357.049 187.221 356.82 186.663 356.412 186.248C356.004 185.833 355.45 185.594 354.868 185.584H309.818Z" fill="#E6E6E6"/>
<path d="M268.824 206.873C267.134 206.873 265.76 207.867 265.76 209.092C265.76 210.318 267.134 211.312 268.824 211.312H413.267C414.956 211.312 416.331 210.318 416.331 209.092C416.331 207.867 414.956 206.873 413.267 206.873H268.824Z" fill="#E6E6E6"/>
<path d="M268.824 220.189C267.134 220.189 265.76 221.184 265.76 222.409C265.76 223.634 267.134 224.629 268.824 224.629H380.018C381.708 224.629 383.082 223.634 383.082 222.409C383.082 221.184 381.708 220.189 380.018 220.189H268.824Z" fill="#E6E6E6"/>
<path d="M435.2 242.721H247.245V149.735H435.2V242.721ZM250.992 238.977H431.454V153.479H250.992V238.977Z" fill="#E6E6E6"/>
<path d="M332.121 110.213C339.48 110.213 345.446 104.251 345.446 96.8962C345.446 89.5416 339.48 83.5796 332.121 83.5796C324.762 83.5796 318.797 89.5416 318.797 96.8962C318.797 104.251 324.762 110.213 332.121 110.213Z" fill="#39B772"/>
<path d="M362.894 88.0182C362.599 88.0129 362.306 88.0664 362.032 88.1756C361.758 88.2847 361.508 88.4474 361.298 88.654C361.087 88.8606 360.92 89.107 360.806 89.3789C360.692 89.6508 360.633 89.9427 360.633 90.2375C360.633 90.5323 360.692 90.8242 360.806 91.0961C360.92 91.368 361.087 91.6144 361.298 91.821C361.508 92.0276 361.758 92.1902 362.032 92.2994C362.306 92.4086 362.599 92.4621 362.894 92.4568H467.587C468.169 92.4464 468.724 92.208 469.132 91.7929C469.539 91.3779 469.768 90.8193 469.768 90.2375C469.768 89.6557 469.539 89.0971 469.132 88.682C468.724 88.267 468.169 88.0286 467.587 88.0182H362.894Z" fill="#E6E6E6"/>
<path d="M362.895 101.335C362.6 101.329 362.306 101.382 362.032 101.49C361.758 101.599 361.508 101.761 361.297 101.967C361.086 102.173 360.919 102.419 360.804 102.691C360.689 102.963 360.63 103.254 360.629 103.549C360.629 103.844 360.687 104.136 360.801 104.408C360.914 104.68 361.081 104.927 361.291 105.134C361.501 105.341 361.75 105.504 362.024 105.614C362.297 105.724 362.59 105.778 362.885 105.773H445.264C445.559 105.779 445.852 105.725 446.126 105.616C446.4 105.507 446.65 105.344 446.86 105.137C447.071 104.931 447.238 104.684 447.352 104.413C447.466 104.141 447.525 103.849 447.525 103.554C447.525 103.259 447.466 102.967 447.352 102.695C447.238 102.423 447.071 102.177 446.86 101.97C446.65 101.764 446.4 101.601 446.126 101.492C445.852 101.383 445.559 101.329 445.264 101.335H362.895Z" fill="#E6E6E6"/>
<path d="M488.278 129.141H300.325V65.4868H488.281L488.278 129.141ZM304.069 125.396H484.531V69.2329H304.069L304.069 125.396Z" fill="#E6E6E6"/>
<path d="M107.007 373.094H116.841L121.518 340.934H107.005L107.007 373.094Z" fill="#FFB6B6"/>
<path d="M23.5879 363.51L31.2401 367.701L51.1081 340.293L39.8149 334.113L23.5879 363.51Z" fill="#FFB6B6"/>
<path d="M106.617 355.247C105.874 355.246 105.156 354.975 104.597 354.485C104.039 353.994 103.679 353.317 103.583 352.58L93.1496 272.232C93.1034 271.877 92.946 271.545 92.7 271.284C92.4539 271.024 92.1318 270.847 91.7795 270.781C91.4273 270.714 91.0629 270.76 90.7384 270.912C90.414 271.065 90.146 271.316 89.9727 271.63L46.492 350.472C46.1333 351.116 45.5553 351.61 44.8631 351.864C44.1709 352.117 43.4106 352.115 42.7203 351.856L33.2436 348.244C32.8624 348.099 32.514 347.879 32.219 347.598C31.9239 347.316 31.6882 346.978 31.5255 346.605C31.3628 346.231 31.2765 345.828 31.2717 345.421C31.2669 345.013 31.3436 344.608 31.4974 344.231L61.6174 270.283C61.6936 270.095 61.7452 269.898 61.7709 269.697C65.8504 238.14 76.2304 222.092 79.3142 217.925C79.5395 217.619 79.6878 217.263 79.7466 216.887C79.8053 216.512 79.7728 216.128 79.6518 215.767L79.2253 214.496C79.0559 213.991 79.0211 213.451 79.1245 212.929C79.2278 212.407 79.4657 211.921 79.8145 211.519C90.9272 198.869 110.297 205.772 110.491 205.843L110.588 205.878L110.65 205.962C132.368 235.729 124.338 332.415 122.508 351.495C122.439 352.212 122.119 352.881 121.604 353.385C121.09 353.889 120.413 354.195 119.695 354.249L106.852 355.237C106.777 355.244 106.696 355.247 106.617 355.247Z" fill="#090814"/>
<path d="M142.073 376.487C139.118 379.07 135.304 380.459 131.379 380.38C124.137 380.275 110.606 380.058 107.465 379.924C103.261 379.735 104.655 376.07 104.791 373.545V373.295C104.84 370.764 105.336 365.281 106.174 364.424C107.013 363.568 109.882 368.239 109.882 368.239C109.882 368.239 115.485 369.908 117.026 364.901C118.568 359.894 121.698 359.412 121.698 359.412C123.119 358.783 123.19 362.56 123.19 362.56L135.049 368.806L142.008 369.918C142.231 370.024 142.434 370.131 142.623 370.235C145.77 372.038 144.376 374.452 142.073 376.487Z" fill="#090814"/>
<path d="M100.312 131.159C110.336 131.159 118.463 123.038 118.463 113.02C118.463 103.002 110.336 94.8804 100.312 94.8804C90.2882 94.8804 82.1621 103.002 82.1621 113.02C82.1621 123.038 90.2882 131.159 100.312 131.159Z" fill="#FFB8B8"/>
<path d="M72.0251 231.501L126.656 236.473C121.894 219.924 117.529 203.428 121.086 186.994C125.602 172.323 126.022 164.194 114.107 157.286L106.062 139.349L91.5016 138.82L84.4015 136.875C78.6661 146.092 76.3199 157.016 77.7656 167.773C80.8529 191.165 80.0193 212.873 72.0251 231.501Z" fill="#39B772"/>
<path d="M544.705 380.632H0V379.152H544.953L544.705 380.632Z" fill="#CBCBCB"/>
<path d="M186.436 216.577L51.3157 312.071L18.9363 266.31L154.056 170.815L186.436 216.577Z" fill="white"/>
<path d="M64.5334 282.3C69.8205 278.564 71.0758 271.251 67.3373 265.967C63.5988 260.683 56.2821 259.429 50.995 263.165C45.7079 266.902 44.4526 274.214 48.1911 279.498C51.9296 284.782 59.2463 286.036 64.5334 282.3Z" fill="#39B772"/>
<path d="M55.0602 379.502C51.3277 380.726 47.2725 380.514 43.6879 378.908C37.0592 375.981 24.6823 370.494 21.8414 369.143C18.0442 367.327 20.7617 364.496 21.8732 362.227L21.971 361.996C23.0077 359.681 25.6099 354.825 26.7168 354.364C27.8237 353.902 28.6391 359.326 28.6391 359.326C28.6391 359.326 33.1463 363.052 36.5249 359.043C39.9035 355.034 42.9747 355.815 42.9747 355.815C44.5298 355.792 43.1177 359.298 43.1177 359.298L51.5963 369.684L57.57 373.428C57.7342 373.612 57.8794 373.791 58.0129 373.96C60.206 376.849 57.9781 378.527 55.0602 379.502Z" fill="#090814"/>
<path d="M75.3812 250.719C74.9577 251.018 74.6706 251.473 74.5829 251.984C74.4952 252.495 74.6141 253.019 74.9135 253.443C75.2129 253.866 75.6683 254.153 76.1794 254.24C76.6906 254.328 77.2156 254.209 77.6391 253.91L152.904 200.719C153.113 200.571 153.292 200.383 153.429 200.166C153.566 199.949 153.659 199.707 153.702 199.454C153.745 199.201 153.739 198.942 153.682 198.691C153.625 198.441 153.52 198.204 153.371 197.995C153.223 197.785 153.035 197.607 152.818 197.47C152.601 197.333 152.358 197.24 152.105 197.197C151.852 197.154 151.593 197.161 151.343 197.217C151.092 197.274 150.855 197.379 150.646 197.528L75.3812 250.719Z" fill="#E6E6E6"/>
<path d="M82.1542 260.29C81.9442 260.438 81.7654 260.626 81.6279 260.843C81.4905 261.059 81.3972 261.301 81.3532 261.554C81.3092 261.807 81.3155 262.066 81.3718 262.316C81.428 262.567 81.533 262.804 81.6809 263.014C81.8287 263.224 82.0164 263.402 82.2334 263.54C82.4503 263.677 82.6923 263.77 82.9453 263.814C83.1983 263.858 83.4575 263.852 83.7081 263.796C83.9587 263.739 84.1957 263.634 84.4057 263.487L84.4121 263.482L143.627 221.632C144.05 221.333 144.337 220.878 144.425 220.367C144.513 219.856 144.394 219.331 144.094 218.908C143.795 218.485 143.34 218.198 142.828 218.11C142.317 218.023 141.792 218.141 141.369 218.441L82.1542 260.29Z" fill="#E6E6E6"/>
<path d="M186.436 216.577L51.3157 312.071L18.9363 266.31L154.056 170.815L186.436 216.577ZM52.1046 307.476L181.837 215.788L153.267 175.411L23.5346 267.098L52.1046 307.476Z" fill="#E6E6E6"/>
<path d="M115.084 246.172L106.298 198.167L106.917 168.477L87.1135 167.858L90.827 201.257L103.632 247.568C102.569 248.859 101.918 250.438 101.762 252.103C101.607 253.768 101.954 255.44 102.759 256.906C103.564 258.371 104.79 259.562 106.278 260.325C107.767 261.087 109.45 261.386 111.111 261.183C112.771 260.98 114.332 260.284 115.593 259.186C116.854 258.088 117.757 256.637 118.185 255.02C118.613 253.404 118.546 251.697 117.994 250.119C117.441 248.541 116.428 247.165 115.086 246.168L115.084 246.172Z" fill="#FFB8B8"/>
<path d="M85.8762 170.953C93.051 168.222 100.98 168.222 108.155 170.953L106.917 146.214C106.917 143.589 105.873 141.073 104.016 139.217C102.159 137.362 99.6411 136.319 97.0152 136.319C94.3896 136.32 91.8717 137.362 90.0151 139.218C88.1585 141.073 87.1154 143.59 87.115 146.214L85.8762 170.953Z" fill="#39B772"/>
<path d="M70.5468 140.286C70.5468 140.286 71.5333 147.769 80.6767 148.014L99.2263 148.511C99.2263 148.511 83.5479 110.379 89.9948 114.675C96.4417 118.971 113.632 100.959 113.632 100.959L118.704 110.467C118.704 110.467 130.822 106.081 117.392 95.3413C117.392 95.3413 101.368 82.9594 84.356 90.3948C67.3444 97.8301 70.5468 140.286 70.5468 140.286Z" fill="#090814"/>
</g>
<defs>
<clipPath id="clip0_63_1689">
<rect width="569" height="384" fill="white"/>
</clipPath>
</defs>
</svg>
