<svg width="71" height="71" viewBox="0 0 71 71" fill="none" xmlns="http://www.w3.org/2000/svg">
<g clip-path="url(#clip0_43_1243)">
<path d="M23.6686 35.5C23.6686 28.9649 28.9649 23.6657 35.5 23.6657C42.0351 23.6657 47.3343 28.9649 47.3343 35.5C47.3343 42.0351 42.0351 47.3343 35.5 47.3343C28.9649 47.3343 23.6686 42.0351 23.6686 35.5ZM17.2712 35.5C17.2712 45.5678 25.4322 53.7288 35.5 53.7288C45.5678 53.7288 53.7288 45.5678 53.7288 35.5C53.7288 25.4322 45.5678 17.2712 35.5 17.2712C25.4322 17.2712 17.2712 25.4322 17.2712 35.5ZM50.1905 16.5484C50.1901 17.3909 50.4396 18.2147 50.9075 18.9154C51.3753 19.6162 52.0404 20.1624 52.8187 20.4852C53.5969 20.8079 54.4535 20.8926 55.2799 20.7286C56.1063 20.5645 56.8655 20.1591 57.4615 19.5636C58.0575 18.968 58.4636 18.2091 58.6283 17.3829C58.793 16.5566 58.709 15.7 58.3868 14.9214C58.0647 14.1429 57.519 13.4774 56.8186 13.009C56.1182 12.5406 55.2947 12.2904 54.4522 12.2901H54.4505C53.3211 12.2906 52.2381 12.7394 51.4394 13.5378C50.6406 14.3362 50.1914 15.419 50.1905 16.5484ZM21.158 64.3961C17.6969 64.2385 15.8157 63.662 14.5655 63.1749C12.9081 62.5297 11.7255 61.7612 10.4822 60.5195C9.2388 59.2779 8.46916 58.0965 7.82676 56.439C7.33941 55.1894 6.76289 53.3077 6.60556 49.8465C6.43345 46.1046 6.39909 44.9805 6.39909 35.5003C6.39909 26.0201 6.43629 24.8991 6.60556 21.154C6.76318 17.6929 7.34396 15.8148 7.82676 14.5615C8.472 12.9041 9.24051 11.7215 10.4822 10.4782C11.7238 9.23483 12.9052 8.46519 14.5655 7.82278C15.8151 7.33544 17.6969 6.75892 21.158 6.60158C24.9 6.42948 26.0241 6.39511 35.5 6.39511C44.9759 6.39511 46.1012 6.43232 49.8463 6.60158C53.3074 6.7592 55.1855 7.33998 56.4388 7.82278C58.0962 8.46519 59.2788 9.23653 60.5221 10.4782C61.7655 11.7198 62.5323 12.9041 63.1775 14.5615C63.6648 15.8111 64.2414 17.6929 64.3987 21.154C64.5708 24.8991 64.6052 26.0201 64.6052 35.5003C64.6052 44.9805 64.5708 46.1014 64.3987 49.8465C64.2411 53.3077 63.6617 55.1889 63.1775 56.439C62.5323 58.0965 61.7637 59.279 60.5221 60.5195C59.2805 61.7601 58.0962 62.5297 56.4388 63.1749C55.1891 63.6623 53.3074 64.2388 49.8463 64.3961C46.1043 64.5683 44.9802 64.6026 35.5 64.6026C26.0198 64.6026 24.8988 64.5683 21.158 64.3961ZM20.8641 0.214988C17.0849 0.387092 14.5025 0.986332 12.2472 1.86389C9.9116 2.77014 7.93439 3.98594 5.9586 5.9586C3.98282 7.93127 2.77014 9.9116 1.86389 12.2472C0.986332 14.5039 0.387092 17.0849 0.214988 20.8641C0.040044 24.6492 0 25.8593 0 35.5C0 45.1407 0.040044 46.3508 0.214988 50.1359C0.387092 53.9154 0.986332 56.4961 1.86389 58.7528C2.77014 61.087 3.9831 63.0696 5.9586 65.0414C7.93411 67.0132 9.9116 68.2273 12.2472 69.1361C14.5067 70.0137 17.0849 70.6129 20.8641 70.785C24.6512 70.9571 25.8593 71 35.5 71C45.1407 71 46.3508 70.96 50.1359 70.785C53.9154 70.6129 56.4961 70.0137 58.7528 69.1361C61.087 68.2273 63.0656 67.0141 65.0414 65.0414C67.0172 63.0687 68.2273 61.087 69.1361 58.7528C70.0137 56.4961 70.6157 53.9151 70.785 50.1359C70.9571 46.3479 70.9972 45.1407 70.9972 35.5C70.9972 25.8593 70.9571 24.6492 70.785 20.8641C70.6129 17.0846 70.0137 14.5025 69.1361 12.2472C68.2273 9.91302 67.0141 7.93439 65.0414 5.9586C63.0687 3.98282 61.087 2.77014 58.7556 1.86389C56.4961 0.986332 53.9151 0.384252 50.1388 0.214988C46.3536 0.042884 45.1435 0 35.5028 0C25.8622 0 24.6512 0.040044 20.8641 0.214988Z" fill="url(#paint0_radial_43_1243)"/>
<path d="M23.6686 35.5C23.6686 28.9649 28.9649 23.6657 35.5 23.6657C42.0351 23.6657 47.3343 28.9649 47.3343 35.5C47.3343 42.0351 42.0351 47.3343 35.5 47.3343C28.9649 47.3343 23.6686 42.0351 23.6686 35.5ZM17.2712 35.5C17.2712 45.5678 25.4322 53.7288 35.5 53.7288C45.5678 53.7288 53.7288 45.5678 53.7288 35.5C53.7288 25.4322 45.5678 17.2712 35.5 17.2712C25.4322 17.2712 17.2712 25.4322 17.2712 35.5ZM50.1905 16.5484C50.1901 17.3909 50.4396 18.2147 50.9075 18.9154C51.3753 19.6162 52.0404 20.1624 52.8187 20.4852C53.5969 20.8079 54.4535 20.8926 55.2799 20.7286C56.1063 20.5645 56.8655 20.1591 57.4615 19.5636C58.0575 18.968 58.4636 18.2091 58.6283 17.3829C58.793 16.5566 58.709 15.7 58.3868 14.9214C58.0647 14.1429 57.519 13.4774 56.8186 13.009C56.1182 12.5406 55.2947 12.2904 54.4522 12.2901H54.4505C53.3211 12.2906 52.2381 12.7394 51.4394 13.5378C50.6406 14.3362 50.1914 15.419 50.1905 16.5484ZM21.158 64.3961C17.6969 64.2385 15.8157 63.662 14.5655 63.1749C12.9081 62.5297 11.7255 61.7612 10.4822 60.5195C9.2388 59.2779 8.46916 58.0965 7.82676 56.439C7.33941 55.1894 6.76289 53.3077 6.60556 49.8465C6.43345 46.1046 6.39909 44.9805 6.39909 35.5003C6.39909 26.0201 6.43629 24.8991 6.60556 21.154C6.76318 17.6929 7.34396 15.8148 7.82676 14.5615C8.472 12.9041 9.24051 11.7215 10.4822 10.4782C11.7238 9.23483 12.9052 8.46519 14.5655 7.82278C15.8151 7.33544 17.6969 6.75892 21.158 6.60158C24.9 6.42948 26.0241 6.39511 35.5 6.39511C44.9759 6.39511 46.1012 6.43232 49.8463 6.60158C53.3074 6.7592 55.1855 7.33998 56.4388 7.82278C58.0962 8.46519 59.2788 9.23653 60.5221 10.4782C61.7655 11.7198 62.5323 12.9041 63.1775 14.5615C63.6648 15.8111 64.2414 17.6929 64.3987 21.154C64.5708 24.8991 64.6052 26.0201 64.6052 35.5003C64.6052 44.9805 64.5708 46.1014 64.3987 49.8465C64.2411 53.3077 63.6617 55.1889 63.1775 56.439C62.5323 58.0965 61.7637 59.279 60.5221 60.5195C59.2805 61.7601 58.0962 62.5297 56.4388 63.1749C55.1891 63.6623 53.3074 64.2388 49.8463 64.3961C46.1043 64.5683 44.9802 64.6026 35.5 64.6026C26.0198 64.6026 24.8988 64.5683 21.158 64.3961ZM20.8641 0.214988C17.0849 0.387092 14.5025 0.986332 12.2472 1.86389C9.9116 2.77014 7.93439 3.98594 5.9586 5.9586C3.98282 7.93127 2.77014 9.9116 1.86389 12.2472C0.986332 14.5039 0.387092 17.0849 0.214988 20.8641C0.040044 24.6492 0 25.8593 0 35.5C0 45.1407 0.040044 46.3508 0.214988 50.1359C0.387092 53.9154 0.986332 56.4961 1.86389 58.7528C2.77014 61.087 3.9831 63.0696 5.9586 65.0414C7.93411 67.0132 9.9116 68.2273 12.2472 69.1361C14.5067 70.0137 17.0849 70.6129 20.8641 70.785C24.6512 70.9571 25.8593 71 35.5 71C45.1407 71 46.3508 70.96 50.1359 70.785C53.9154 70.6129 56.4961 70.0137 58.7528 69.1361C61.087 68.2273 63.0656 67.0141 65.0414 65.0414C67.0172 63.0687 68.2273 61.087 69.1361 58.7528C70.0137 56.4961 70.6157 53.9151 70.785 50.1359C70.9571 46.3479 70.9972 45.1407 70.9972 35.5C70.9972 25.8593 70.9571 24.6492 70.785 20.8641C70.6129 17.0846 70.0137 14.5025 69.1361 12.2472C68.2273 9.91302 67.0141 7.93439 65.0414 5.9586C63.0687 3.98282 61.087 2.77014 58.7556 1.86389C56.4961 0.986332 53.9151 0.384252 50.1388 0.214988C46.3536 0.042884 45.1435 0 35.5028 0C25.8622 0 24.6512 0.040044 20.8641 0.214988Z" fill="url(#paint1_radial_43_1243)"/>
</g>
<defs>
<radialGradient id="paint0_radial_43_1243" cx="0" cy="0" r="1" gradientUnits="userSpaceOnUse" gradientTransform="translate(9.43277 71.3354) scale(92.6845 92.6845)">
<stop offset="0.09" stop-color="#FA8F21"/>
<stop offset="0.78" stop-color="#D82D7E"/>
</radialGradient>
<radialGradient id="paint1_radial_43_1243" cx="0" cy="0" r="1" gradientUnits="userSpaceOnUse" gradientTransform="translate(43.0584 74.5162) scale(73.0482 73.0482)">
<stop offset="0.64" stop-color="#8C3AAA" stop-opacity="0"/>
<stop offset="1" stop-color="#8C3AAA"/>
</radialGradient>
<clipPath id="clip0_43_1243">
<rect width="71" height="71" fill="white"/>
</clipPath>
</defs>
</svg>
