<svg width="397" height="454" viewBox="0 0 397 454" fill="none" xmlns="http://www.w3.org/2000/svg">
<g clip-path="url(#clip0_86_344)">
<path d="M4.39711 344.395C1.6373 346.929 0.0576364 350.38 0.00154612 353.998C-0.0545442 357.616 1.41747 361.109 4.09757 363.716L94.1739 449.82C95.5224 451.126 97.1351 452.168 98.918 452.886C100.701 453.604 102.618 453.982 104.559 454C106.5 454.017 108.425 453.673 110.222 452.988C112.02 452.303 113.653 451.29 115.029 450.008L392.69 186.283C394.236 184.842 395.418 183.096 396.15 181.173C396.882 179.249 397.145 177.197 396.921 175.166C396.697 173.135 395.99 171.176 394.854 169.434C393.717 167.691 392.178 166.208 390.35 165.094L287.059 100.992C284.276 99.278 280.949 98.5095 277.634 98.8149C274.319 99.1204 271.215 100.481 268.843 102.67L4.39711 344.395Z" fill="#3F3D56"/>
<path d="M376.413 176.087L364.897 169.214C366.11 171.238 366.556 173.586 366.161 175.876C365.766 178.166 364.555 180.264 362.724 181.828C360.892 183.391 358.55 184.328 356.077 184.486C353.604 184.645 351.147 184.014 349.106 182.699L274.586 134.745C272.892 133.657 271.559 132.145 270.738 130.382C269.917 128.619 269.643 126.676 269.945 124.773C270.247 122.871 271.114 121.087 272.447 119.623C273.78 118.16 275.526 117.077 277.485 116.497L271.552 112.956C270.782 112.497 269.867 112.298 268.96 112.394C268.053 112.489 267.208 112.873 266.566 113.481L15.8754 344.074C15.5013 344.428 15.2068 344.849 15.009 345.311C14.8112 345.774 14.7141 346.269 14.7235 346.767C14.7329 347.265 14.8486 347.756 15.0638 348.211C15.2789 348.667 15.5892 349.078 15.9764 349.419L107.021 432.454C107.776 433.12 108.778 433.485 109.815 433.472C110.852 433.458 111.843 433.067 112.578 432.382L377.085 181.884C377.509 181.489 377.832 181.01 378.031 180.482C378.23 179.954 378.3 179.391 378.236 178.835C378.171 178.278 377.974 177.742 377.658 177.267C377.343 176.791 376.917 176.388 376.413 176.087Z" fill="white"/>
<path d="M87.0774 293.157L163.981 361.025L346.903 191.868L254.069 135.31L87.0774 293.157Z" fill="#E6E6E6"/>
<path d="M339.793 233.615C340.3 234.068 340.974 234.32 341.675 234.32C342.376 234.32 343.05 234.068 343.557 233.615L359.554 218.642C360.052 218.175 360.332 217.541 360.332 216.881C360.332 216.22 360.052 215.587 359.554 215.119C359.047 214.666 358.373 214.414 357.672 214.414C356.971 214.414 356.297 214.666 355.79 215.119L339.793 230.092C339.295 230.559 339.016 231.193 339.016 231.853C339.016 232.514 339.295 233.147 339.793 233.615Z" fill="#3F3D56"/>
<path d="M312.846 258.837C313.346 259.303 314.023 259.565 314.728 259.565C315.434 259.565 316.111 259.303 316.61 258.837L332.607 243.864C332.854 243.633 333.051 243.359 333.185 243.056C333.319 242.754 333.388 242.43 333.388 242.102C333.388 241.775 333.319 241.451 333.186 241.148C333.052 240.846 332.856 240.571 332.609 240.34C332.361 240.108 332.068 239.925 331.745 239.8C331.421 239.674 331.075 239.61 330.725 239.61C330.376 239.61 330.029 239.675 329.706 239.8C329.383 239.926 329.09 240.11 328.843 240.341L312.846 255.314C312.348 255.782 312.068 256.415 312.068 257.076C312.068 257.736 312.348 258.369 312.846 258.837Z" fill="#3F3D56"/>
<path d="M88.8536 368.227C98.7752 368.227 106.818 360.699 106.818 351.413C106.818 342.126 98.7752 334.598 88.8536 334.598C78.932 334.598 70.8889 342.126 70.8889 351.413C70.8889 360.699 78.932 368.227 88.8536 368.227Z" fill="#39B772"/>
<path d="M190.321 295.986C217.697 295.986 239.89 284.693 239.89 270.763C239.89 256.834 217.697 245.541 190.321 245.541C162.944 245.541 140.751 256.834 140.751 270.763C140.751 284.693 162.944 295.986 190.321 295.986Z" fill="white"/>
<path d="M126.423 52.0999L125.83 57.1365L125.481 60.1168L123.766 74.6946C123.766 74.6946 122.458 76.9676 120.12 80.1544C116.23 85.4509 109.471 93.27 101.083 97.3851C87.6428 103.977 82.3421 56.6334 82.3421 56.6334C82.3421 56.6334 79.4381 38.2774 86.5732 37.6037C93.7084 36.93 91.2542 44.8366 91.7965 57.8451C92.3388 70.8536 101.658 81.8573 101.658 81.8573C101.658 81.8573 111.578 68.9752 115.936 60.3317C118.206 55.8287 120.96 53.7825 123.072 52.8607L123.078 52.8583C123.775 52.5457 124.513 52.321 125.273 52.1899C125.652 52.1201 126.037 52.0899 126.423 52.0999Z" fill="#FFB8B8"/>
<path d="M104.347 72.8168L126.224 84.7214L138.137 64.8529L135.446 55.8919C132.334 53.6117 128.448 52.4566 124.5 52.6377C120.552 52.8189 116.806 54.3242 113.947 56.8784L104.347 72.8168Z" fill="#39B772"/>
<path d="M112.353 1.84782C99.6884 6.74813 94.1317 21.3852 99.9418 34.5407L107.324 51.2548L112.816 49.1298L113.26 41.7068L115.2 48.2071L150.501 34.5484L150.905 27.8002L152.669 33.7095L156.643 32.1717L150.847 19.0481C144.161 3.90971 126.927 -3.79116 112.353 1.84782Z" fill="#2F2E41"/>
<path d="M124.943 87.4574L127.17 102.597L162.194 87.6539L156.573 76.6104C156.573 76.6104 127.025 80.3905 124.943 87.4574Z" fill="#A0616A"/>
<path d="M114.807 155.384L136.729 174.729L142.01 158.076L125.776 144.879L114.807 155.384Z" fill="#FFB8B8"/>
<path d="M181.947 231.673L195.288 258.514L209.254 253.11L195.278 226.516L181.947 231.673Z" fill="#FFB8B8"/>
<path d="M115.846 125.762L130.854 142.914L182.362 234.296C182.362 234.296 192.299 233.234 197.335 227.807L192.831 214.244L162.306 138.397C162.306 138.397 171.743 127.788 166.8 119.961C161.856 112.134 153.696 102.073 153.696 102.073L115.846 125.762Z" fill="#2F2E41"/>
<path d="M194.306 251.241L190.497 252.715C190.497 252.715 184.429 267.585 181.145 270.247C177.861 272.91 162.643 290.624 179.3 286.267C195.957 281.909 202.703 270.254 202.703 270.254C202.703 270.254 209.093 271.26 215.026 266.182C220.959 261.103 214.002 255.447 214.002 255.447C214.002 255.447 205.658 245.952 205.563 246.089C205.469 246.226 204.022 253.047 194.306 251.241Z" fill="#2F2E41"/>
<path d="M124.238 40.4225C132.302 37.3025 136.137 28.6549 132.803 21.1074C129.47 13.56 120.231 9.97087 112.167 13.0909C104.104 16.2109 100.269 24.8585 103.603 32.4059C106.936 39.9533 116.175 43.5425 124.238 40.4225Z" fill="#FFB8B8"/>
<path d="M147.658 36.2306L143.257 44.0698L142.665 45.1196L145.179 52.4952L120.422 62.0744C120.422 62.0744 122.589 58.0286 124.474 53.981C124.508 53.8911 124.547 53.7928 124.594 53.698C124.849 53.1472 125.072 52.6433 125.273 52.1898C125.379 51.9404 125.483 51.7052 125.573 51.4893C125.721 51.1331 125.867 50.7913 126.013 50.4494C126.015 50.4449 126.016 50.4399 126.014 50.4351C126.383 49.5473 126.697 48.6406 126.956 47.7194L126.959 47.7111C127.028 47.463 127.084 47.2117 127.125 46.9583C127.717 43.2506 120.65 39.0283 120.65 39.0283L131.728 27.0889C135.062 33.3405 142.783 35.3899 146.099 35.999C147.068 36.1736 147.658 36.2306 147.658 36.2306Z" fill="#FFB8B8"/>
<path d="M226.023 122.787C217.551 128.848 209.043 111.269 209.043 111.269L185.303 91.9686C180.286 87.8905 175.967 83.117 172.495 77.8142L161.744 61.3914L161.285 62.7586L161.287 62.7645L159.992 64.1563L143.516 53.1388L138.899 50.0554L136.799 45.3021L144.484 37.4586L148.293 35.9849C148.293 35.9849 148.37 35.9411 148.511 35.8727C150.187 35.0225 161.273 29.8982 166.457 40.088C168.492 44.0869 169.968 47.4813 171.023 50.1846C173.908 57.6762 177.906 64.7506 182.897 71.1998C184.709 73.5204 186.432 75.4779 187.695 76.3952C192.071 79.5719 215.391 108.812 215.391 108.812C215.391 108.812 234.495 116.726 226.023 122.787Z" fill="#FFB8B8"/>
<path d="M126.956 47.7195C126.959 47.7947 126.894 48.4389 125.573 51.4894C126.12 50.2618 126.582 49.0025 126.956 47.7195Z" fill="#D0CDE1"/>
<path d="M161.558 61.8113L161.287 62.7646L161.092 82.3747C161.092 82.3747 152.791 96.4321 143.379 98.6825C138.028 99.8082 127.997 94.875 127.1 99.9392L123.369 83.8925L120.12 80.1545C119.741 79.7168 119.313 79.2354 118.84 78.6877C114.312 73.4829 118.408 64.2453 118.408 64.2453L123.072 52.8607L123.078 52.8583C123.775 52.5457 124.513 52.321 125.273 52.1899C125.072 52.6434 124.849 53.1473 124.594 53.6981C124.547 53.7929 124.508 53.8912 124.474 53.9811C123.068 57.245 124.618 57.4039 125.83 57.1365C126.23 57.0451 126.618 56.9157 126.99 56.7504C129.795 56.0826 134.63 51.6655 138.08 48.2017C140.429 45.8458 142.14 43.9314 142.14 43.9314L145.583 37.0338L146.099 35.999C147.068 36.1737 147.658 36.2306 147.658 36.2306L148.293 35.985C148.293 35.985 148.37 35.9412 148.511 35.8728L146.507 38.9987C145.51 40.5551 144.944 42.3204 144.861 44.1339C144.778 45.9474 145.181 47.7514 146.034 49.3818L161.558 61.8113Z" fill="#39B772"/>
<path d="M134.44 92.1312L126.658 99.1142C126.658 99.1142 68.2092 100.365 67.152 118.167C66.0949 135.968 116.119 158.355 116.119 158.355L128.467 145.924L114.247 130.555C114.247 130.555 163.923 145.424 172.073 123.486C180.223 101.549 160.048 82.7954 160.048 82.7954C160.048 82.7954 147.423 79.4549 134.44 92.1312Z" fill="#2F2E41"/>
<path d="M136.382 167.211L132.506 173.581C132.506 173.581 145.981 190.629 145.389 194.337C144.797 198.045 144.662 207.837 151.382 204.541C158.102 201.245 161.259 188.196 160.319 184.386C159.379 180.575 159.099 168.161 159.099 168.161C159.099 168.161 159.369 148.577 153.394 150.193C147.418 151.81 138.143 154.933 138.143 154.933L136.382 167.211Z" fill="#2F2E41"/>
<path d="M121.77 5.88703C120.054 4.92702 118.125 4.34999 116.132 4.2007C114.139 4.0514 112.136 4.33387 110.279 5.02618L109.829 5.20037C101.148 8.55906 97.3587 18.6338 101.364 27.703L104.273 26.5776L103.264 23.0493L105.431 26.1294L122.682 19.4548L122.877 16.0643L123.766 19.0354L127.159 17.7222C131.994 24.4708 132.97 32.7124 130.086 42.4473L135.868 40.2104L136.257 33.4295L138.035 39.3716L149.055 35.1076L145.471 21.245C141.164 11.4914 131.456 5.56319 121.77 5.88703Z" fill="#2F2E41"/>
<path d="M187.017 57.2168L153.661 70.1232L142.962 45.8999L147.348 36.0093C151.237 33.8041 155.845 32.9831 160.328 33.6965C164.811 34.4098 168.87 36.6099 171.762 39.8942L187.017 57.2168Z" fill="#39B772"/>
</g>
<defs>
<clipPath id="clip0_86_344">
<rect width="397" height="454" fill="white"/>
</clipPath>
</defs>
</svg>
