<svg width="167" height="141" viewBox="0 0 167 141" fill="none" xmlns="http://www.w3.org/2000/svg">
<path d="M32.4216 54.7816L12.4179 61.6751C11.7391 61.9081 10.9956 61.8623 10.3506 61.5478C9.70557 61.2333 9.21166 60.6757 8.97728 59.9974L0.881713 36.5054C0.648731 35.8268 0.694436 35.0834 1.0088 34.4385C1.32317 33.7935 1.88052 33.2996 2.55859 33.0651L21.1688 26.6518L26.2057 28.4403L34.0975 51.3408C34.3307 52.0193 34.2852 52.7626 33.971 53.4077C33.6568 54.0527 33.0996 54.5468 32.4216 54.7816Z" fill="#E6E6E6"/>
<path d="M2.81241 33.8013C2.32964 33.9685 1.93286 34.3203 1.70901 34.7795C1.48516 35.2388 1.45249 35.7681 1.61817 36.2514L9.71381 59.7436C9.88104 60.2264 10.2328 60.6232 10.6921 60.847C11.1513 61.0709 11.6806 61.1035 12.1639 60.9378L32.1675 54.0444C32.6503 53.8772 33.0471 53.5254 33.2709 53.0661C33.4948 52.6069 33.5274 52.0776 33.3617 51.5943L25.5922 29.0483L21.1649 27.4768L2.81241 33.8013Z" fill="white"/>
<path d="M21.2794 35.0799L12.1721 38.2184C12.1158 38.2392 12.0559 38.2485 11.9959 38.2458C11.936 38.2431 11.8771 38.2285 11.8229 38.2028C11.7687 38.1771 11.7201 38.1408 11.6801 38.096C11.6401 38.0513 11.6094 37.9991 11.5899 37.9423C11.5703 37.8856 11.5623 37.8255 11.5663 37.7656C11.5702 37.7057 11.5861 37.6472 11.613 37.5936C11.6399 37.5399 11.6772 37.4922 11.7228 37.4531C11.7683 37.4141 11.8212 37.3845 11.8784 37.3662L20.9857 34.2277C21.098 34.1917 21.2198 34.2011 21.3252 34.2539C21.4307 34.3067 21.5112 34.3987 21.5496 34.5101C21.588 34.6216 21.5812 34.7436 21.5307 34.8501C21.4802 34.9566 21.39 35.0391 21.2794 35.0799Z" fill="#39B772"/>
<path d="M23.5325 35.9123L12.6677 39.6564C12.6114 39.6771 12.5515 39.6865 12.4915 39.6838C12.4316 39.6811 12.3727 39.6665 12.3185 39.6408C12.2643 39.615 12.2157 39.5788 12.1757 39.534C12.1357 39.4893 12.105 39.437 12.0855 39.3803C12.0659 39.3236 12.0579 39.2635 12.0619 39.2036C12.0658 39.1437 12.0817 39.0852 12.1086 39.0316C12.1355 38.9779 12.1728 38.9302 12.2184 38.8911C12.2639 38.8521 12.3168 38.8225 12.374 38.8042L23.2388 35.0601C23.2951 35.0393 23.355 35.03 23.415 35.0327C23.4749 35.0353 23.5337 35.05 23.588 35.0757C23.6422 35.1014 23.6907 35.1377 23.7307 35.1824C23.7708 35.2271 23.8014 35.2794 23.821 35.3361C23.8406 35.3929 23.8486 35.453 23.8446 35.5128C23.8406 35.5727 23.8248 35.6312 23.7979 35.6849C23.771 35.7385 23.7337 35.7863 23.6881 35.8253C23.6425 35.8644 23.5896 35.8939 23.5325 35.9123Z" fill="#39B772"/>
<path d="M23.2066 40.6718L14.0995 43.8102C13.9865 43.8492 13.8936 43.9314 13.8412 44.0388C13.7889 44.1462 13.7813 44.2701 13.8203 44.383C13.8592 44.496 13.9414 44.5889 14.0488 44.6413C14.1563 44.6936 14.2801 44.7012 14.3931 44.6622L23.5002 41.5238C23.6132 41.4849 23.7061 41.4027 23.7584 41.2953C23.8108 41.1878 23.8183 41.064 23.7794 40.951C23.7405 40.838 23.6582 40.7452 23.5508 40.6928C23.4434 40.6404 23.3196 40.6329 23.2066 40.6718Z" fill="#CCCCCC"/>
<path d="M25.46 41.5046L14.5952 45.2487C14.4822 45.2876 14.3893 45.3699 14.337 45.4773C14.2846 45.5847 14.2771 45.7085 14.316 45.8215C14.3549 45.9345 14.4372 46.0274 14.5446 46.0797C14.652 46.1321 14.7758 46.1396 14.8888 46.1007L25.7536 42.3566C25.8666 42.3177 25.9595 42.2354 26.0119 42.128C26.0642 42.0206 26.0718 41.8968 26.0328 41.7838C25.9939 41.6708 25.9117 41.5779 25.8042 41.5256C25.6968 41.4732 25.573 41.4657 25.46 41.5046Z" fill="#CCCCCC"/>
<path d="M25.7206 47.9687L16.6133 51.1072C16.5003 51.1461 16.3765 51.1386 16.2691 51.0862C16.1617 51.0338 16.0795 50.9409 16.0405 50.828C16.0016 50.715 16.0091 50.5912 16.0615 50.4837C16.1138 50.3763 16.2067 50.2941 16.3197 50.2551L25.427 47.1167C25.4833 47.0959 25.5432 47.0866 25.6032 47.0893C25.6631 47.092 25.722 47.1066 25.7762 47.1323C25.8304 47.158 25.879 47.1943 25.919 47.239C25.959 47.2838 25.9897 47.336 26.0092 47.3928C26.0288 47.4495 26.0368 47.5096 26.0328 47.5695C26.0289 47.6293 26.013 47.6878 25.9861 47.7415C25.9592 47.7952 25.9219 47.8429 25.8763 47.882C25.8308 47.921 25.7778 47.9504 25.7206 47.9687Z" fill="#CCCCCC"/>
<path d="M27.974 48.8014L17.1092 52.5455C17.0529 52.5663 16.993 52.5756 16.933 52.5729C16.8731 52.5703 16.8143 52.5556 16.76 52.5299C16.7058 52.5042 16.6573 52.4679 16.6173 52.4232C16.5772 52.3785 16.5466 52.3262 16.527 52.2695C16.5074 52.2127 16.4994 52.1527 16.5034 52.0928C16.5074 52.0329 16.5232 51.9744 16.5501 51.9207C16.577 51.8671 16.6143 51.8193 16.6599 51.7803C16.7055 51.7412 16.7584 51.7117 16.8155 51.6933L27.6803 47.9492C27.7366 47.9285 27.7965 47.9191 27.8565 47.9218C27.9164 47.9245 27.9753 47.9391 28.0295 47.9648C28.0837 47.9906 28.1323 48.0268 28.1723 48.0716C28.2123 48.1163 28.243 48.1686 28.2625 48.2253C28.2821 48.282 28.2901 48.3421 28.2861 48.402C28.2822 48.4619 28.2663 48.5204 28.2394 48.574C28.2125 48.6277 28.1752 48.6754 28.1296 48.7145C28.0841 48.7535 28.0312 48.7831 27.974 48.8014Z" fill="#CCCCCC"/>
<path d="M8.99951 41.3247C9.83128 41.038 10.2732 40.1314 9.98656 39.2996C9.69993 38.4678 8.79328 38.0259 7.9615 38.3125C7.12973 38.5992 6.68781 39.5058 6.97445 40.3376C7.26108 41.1694 8.16773 41.6113 8.99951 41.3247Z" fill="#39B772"/>
<path d="M12.3616 45.6902C12.4298 45.888 12.4584 46.0972 12.4458 46.3061C12.4331 46.5149 12.3794 46.7192 12.2878 46.9073C12.1961 47.0953 12.0684 47.2635 11.9117 47.4022C11.7551 47.5409 11.5727 47.6474 11.3749 47.7156C11.3619 47.7204 11.3486 47.7245 11.3351 47.7277C11.0364 47.8222 10.7164 47.8265 10.4153 47.74C10.1142 47.6535 9.8452 47.4802 9.6421 47.2416C9.439 47.0031 9.31077 46.7099 9.27345 46.3988C9.23613 46.0877 9.29138 45.7726 9.43229 45.4927C9.5732 45.2129 9.79351 44.9809 10.0657 44.8256C10.3378 44.6704 10.6497 44.5988 10.9623 44.62C11.2749 44.6411 11.5743 44.7539 11.8231 44.9444C12.0718 45.1348 12.2589 45.3944 12.3609 45.6907L12.3616 45.6902Z" fill="#39B772"/>
<path d="M13.441 54.2133C14.2728 53.9267 14.7147 53.02 14.4281 52.1883C14.1415 51.3565 13.2348 50.9146 12.403 51.2012C11.5713 51.4879 11.1293 52.3945 11.416 53.2263C11.7026 54.058 12.6093 54.5 13.441 54.2133Z" fill="#39B772"/>
<path d="M26.1644 28.5679L23.0683 29.6349C22.8423 29.7127 22.5947 29.6976 22.3798 29.5928C22.165 29.4881 22.0005 29.3023 21.9227 29.0763L21.1347 26.7898C21.1313 26.7798 21.1308 26.769 21.1333 26.7587C21.1357 26.7485 21.141 26.7391 21.1485 26.7317C21.156 26.7242 21.1654 26.7191 21.1757 26.7168C21.186 26.7144 21.1967 26.7151 21.2067 26.7185L26.1647 28.4616C26.1757 28.4655 26.1852 28.4727 26.192 28.4823C26.1987 28.4918 26.2023 28.5032 26.2022 28.5149C26.2022 28.5266 26.1985 28.5379 26.1918 28.5474C26.185 28.5569 26.1754 28.5641 26.1644 28.5679Z" fill="#E6E6E6"/>
<path opacity="0.2" d="M34.6329 125.413C34.8104 125.413 34.9544 125.27 34.9544 125.092C34.9544 124.914 34.8104 124.771 34.6329 124.771C34.4553 124.771 34.3114 124.914 34.3114 125.092C34.3114 125.27 34.4553 125.413 34.6329 125.413Z" fill="black"/>
<path d="M162.95 42.2478L123.313 39.4676C121.48 39.3391 119.89 40.7205 119.762 42.5532L119.565 45.36C119.436 47.1927 120.818 48.7825 122.65 48.9111L162.287 51.6912C164.12 51.8198 165.71 50.4383 165.838 48.6057L166.035 45.7988C166.164 43.9662 164.782 42.3763 162.95 42.2478Z" fill="#E6E6E6"/>
<path d="M125.164 46.7151L125.495 41.9934L127.167 42.1106C127.449 42.12 127.725 42.1977 127.97 42.3373C128.164 42.4515 128.32 42.6209 128.417 42.824C128.509 43.0241 128.548 43.2445 128.53 43.464C128.524 43.6383 128.475 43.8083 128.387 43.9588C128.311 44.081 128.206 44.1825 128.081 44.2543C127.959 44.3242 127.826 44.374 127.688 44.4018L127.685 44.4462C127.842 44.4691 127.99 44.5321 128.116 44.6292C128.262 44.7397 128.378 44.8847 128.455 45.0511C128.545 45.2509 128.581 45.471 128.558 45.689C128.546 45.9132 128.474 46.1301 128.35 46.3175C128.217 46.5091 128.027 46.6544 127.807 46.7334C127.513 46.8346 127.2 46.8695 126.89 46.8358L125.164 46.7151ZM125.803 46.2249L126.911 46.3027C127.187 46.3486 127.471 46.2926 127.709 46.145C127.788 46.0858 127.853 46.0103 127.899 45.9236C127.946 45.8369 127.973 45.7411 127.978 45.6429C127.99 45.4889 127.959 45.3346 127.889 45.1972C127.815 45.0558 127.705 44.9368 127.57 44.8529C127.414 44.7577 127.237 44.7036 127.054 44.6956L125.916 44.6158L125.803 46.2249ZM125.951 44.1083L126.99 44.1811C127.224 44.2043 127.458 44.1414 127.648 44.0043C127.739 43.9391 127.814 43.8539 127.866 43.7553C127.919 43.6568 127.948 43.5475 127.952 43.4358C127.961 43.3395 127.949 43.2424 127.919 43.1507C127.888 43.0589 127.839 42.9744 127.775 42.9023C127.599 42.7319 127.362 42.6384 127.117 42.6423L126.059 42.5682L125.951 44.1083Z" fill="#090814"/>
<path d="M139.139 46.4276C139.104 46.425 139.07 46.4153 139.038 46.3992C139.007 46.3831 138.979 46.3609 138.956 46.3339C138.909 46.2782 138.886 46.2065 138.891 46.134C138.896 46.0615 138.929 45.9938 138.983 45.9452L140.709 44.4094C140.736 44.3857 140.767 44.3675 140.8 44.3559C140.834 44.3444 140.869 44.3397 140.905 44.3422C140.94 44.3447 140.975 44.3543 141.006 44.3704C141.038 44.3865 141.066 44.4088 141.089 44.436C141.136 44.4916 141.159 44.5633 141.154 44.6358C141.149 44.7084 141.116 44.7761 141.061 44.8247L139.335 46.36C139.308 46.3837 139.277 46.4019 139.244 46.4134C139.21 46.425 139.175 46.4296 139.139 46.4272L139.139 46.4276Z" fill="black"/>
<path d="M141.306 46.3034C141.267 46.3007 141.229 46.2896 141.195 46.2708C141.162 46.2521 141.132 46.2261 141.109 46.1948C141.066 46.1362 141.048 46.0631 141.058 45.9911C141.068 45.919 141.105 45.8537 141.163 45.8088L141.307 45.6974C141.784 45.267 142.059 44.3192 141.697 43.8933C141.336 43.4673 140.382 43.6134 139.899 44.0364L139.771 44.1675C139.746 44.193 139.717 44.2133 139.684 44.2272C139.652 44.2411 139.617 44.2484 139.581 44.2486C139.546 44.2488 139.511 44.2418 139.478 44.2282C139.446 44.2146 139.416 44.1946 139.391 44.1694C139.34 44.1172 139.312 44.0474 139.312 43.9747C139.312 43.902 139.34 43.8321 139.391 43.7798L139.525 43.6398C139.53 43.6352 139.535 43.6306 139.54 43.6261C139.9 43.324 140.344 43.1393 140.812 43.0967C141.047 43.0577 141.287 43.0769 141.513 43.1526C141.738 43.2283 141.941 43.3582 142.104 43.5308C142.25 43.7244 142.347 43.9496 142.388 44.1879C142.43 44.4262 142.415 44.671 142.344 44.9023C142.239 45.3673 141.999 45.7907 141.653 46.1187C141.648 46.123 141.643 46.1271 141.638 46.1311L141.486 46.2485C141.435 46.2884 141.37 46.308 141.306 46.3034Z" fill="black"/>
<path d="M138.895 47.6781C138.715 47.6727 138.538 47.631 138.374 47.5556C138.21 47.4802 138.063 47.3726 137.942 47.2392C137.659 46.906 137.518 46.4753 137.548 46.0392C137.582 45.5529 138.115 44.8946 138.393 44.6511L138.405 44.6401L138.556 44.5229C138.584 44.501 138.616 44.485 138.65 44.4757C138.684 44.4664 138.719 44.464 138.755 44.4686C138.79 44.4733 138.823 44.485 138.854 44.5029C138.884 44.5208 138.911 44.5446 138.932 44.573C138.975 44.6314 138.994 44.7043 138.985 44.7764C138.975 44.8484 138.938 44.914 138.881 44.9592L138.738 45.0714C138.465 45.3132 138.1 45.8416 138.084 46.0764C138.064 46.3665 138.158 46.653 138.346 46.8747C138.709 47.2976 139.664 47.157 140.154 46.7393L140.259 46.616C140.281 46.5886 140.309 46.566 140.341 46.5496C140.372 46.5332 140.407 46.5233 140.442 46.5205C140.477 46.5176 140.513 46.5219 140.547 46.5332C140.58 46.5444 140.612 46.5622 140.638 46.5857C140.692 46.6341 140.725 46.7016 140.73 46.774C140.735 46.8463 140.712 46.9178 140.666 46.9734L140.549 47.1126C140.54 47.1231 140.531 47.1329 140.52 47.142C140.157 47.4437 139.711 47.6281 139.241 47.6709C139.126 47.6825 139.011 47.6846 138.895 47.6773L138.895 47.6781Z" fill="black"/>
<path d="M145.964 41.0566L145.492 41.0234L144.83 50.4669L145.302 50.5L145.964 41.0566Z" fill="white"/>
<path d="M132.246 47.2115L133.065 43.8218L133.627 43.8612L132.808 47.251L132.246 47.2115ZM133.482 43.2869C133.434 43.2853 133.387 43.2733 133.344 43.2515C133.301 43.2297 133.263 43.1988 133.233 43.1608C133.204 43.1243 133.185 43.0815 133.175 43.0358C133.166 42.9901 133.168 42.9429 133.181 42.8981C133.205 42.7954 133.269 42.7063 133.358 42.6496C133.446 42.5872 133.552 42.5569 133.659 42.564C133.708 42.5652 133.755 42.5769 133.799 42.5983C133.842 42.6197 133.881 42.6503 133.911 42.688C133.941 42.7247 133.961 42.7679 133.97 42.8139C133.979 42.86 133.977 42.9075 133.964 42.9526C133.938 43.0545 133.875 43.1427 133.786 43.1992C133.698 43.2631 133.59 43.2941 133.482 43.2869Z" fill="black"/>
<path d="M151.399 44.7592C151.492 44.7657 151.581 44.7998 151.655 44.8572C151.729 44.9145 151.785 44.9925 151.814 45.0813C151.844 45.1701 151.847 45.2657 151.822 45.356C151.798 45.4464 151.747 45.5274 151.676 45.5888C151.605 45.6502 151.518 45.6893 151.425 45.7011C151.332 45.7129 151.238 45.6968 151.154 45.655C151.07 45.6133 151.001 45.5476 150.954 45.4663C150.908 45.385 150.887 45.2917 150.893 45.1983C150.902 45.0731 150.96 44.9564 151.055 44.8741C151.15 44.7917 151.273 44.7504 151.399 44.7592Z" fill="#090814"/>
<path d="M149.576 43.6824L152.409 43.8811C152.659 43.8987 152.893 44.015 153.057 44.2046C153.222 44.3941 153.305 44.6412 153.287 44.8916L153.088 47.7246C153.071 47.9751 152.954 48.2083 152.765 48.3729C152.575 48.5376 152.328 48.6202 152.078 48.6027L149.245 48.404C148.994 48.3864 148.761 48.2701 148.597 48.0806C148.432 47.8912 148.349 47.6441 148.367 47.3937L148.565 44.5605C148.583 44.31 148.699 44.0768 148.889 43.9122C149.078 43.7475 149.326 43.6649 149.576 43.6824ZM152.111 48.1309C152.173 48.1352 152.235 48.1273 152.294 48.1076C152.353 48.0879 152.408 48.0567 152.455 48.016C152.501 47.9752 152.54 47.9256 152.568 47.8699C152.595 47.8143 152.612 47.7538 152.616 47.6917L152.815 44.8585C152.819 44.7965 152.811 44.7343 152.792 44.6753C152.772 44.6163 152.741 44.5618 152.7 44.5149C152.659 44.468 152.61 44.4296 152.554 44.4018C152.498 44.374 152.438 44.3575 152.376 44.3532L149.543 44.1545C149.418 44.1457 149.294 44.1871 149.199 44.2694C149.105 44.3518 149.047 44.4684 149.038 44.5936L148.839 47.4266C148.835 47.4886 148.843 47.5509 148.862 47.6098C148.882 47.6688 148.913 47.7233 148.954 47.7702C148.995 47.8171 149.044 47.8556 149.1 47.8833C149.156 47.9111 149.216 47.9276 149.278 47.932L152.111 48.1309Z" fill="black"/>
<path d="M151.688 47.3896C151.626 47.385 151.568 47.356 151.527 47.3089L150.43 46.0471C150.41 46.0172 150.382 45.9923 150.351 45.9743C150.319 45.9562 150.284 45.9455 150.248 45.943C150.212 45.9405 150.175 45.9461 150.141 45.9596C150.108 45.973 150.077 45.9939 150.053 46.0206L148.791 47.1168C148.744 47.158 148.682 47.1786 148.619 47.1742C148.557 47.1698 148.498 47.1407 148.457 47.0934C148.416 47.046 148.395 46.9842 148.4 46.9216C148.404 46.8589 148.433 46.8006 148.481 46.7595L149.744 45.662L149.747 45.6591C149.819 45.5932 149.903 45.5426 149.995 45.5104C150.087 45.4782 150.184 45.4651 150.281 45.4719C150.378 45.4787 150.473 45.5052 150.559 45.5499C150.645 45.5946 150.722 45.6565 150.783 45.7317L150.786 45.7351L151.884 46.9984C151.915 47.0337 151.934 47.0774 151.94 47.1238C151.946 47.1703 151.938 47.2175 151.917 47.2594C151.896 47.3012 151.863 47.336 151.823 47.3592C151.782 47.3824 151.735 47.393 151.688 47.3896Z" fill="black"/>
<path d="M152.869 47.4718C152.807 47.4672 152.749 47.4382 152.708 47.3911L152.05 46.6347C152.029 46.6048 152.002 46.5798 151.971 46.5618C151.939 46.5438 151.904 46.5331 151.867 46.5306C151.831 46.528 151.795 46.5337 151.761 46.5471C151.727 46.5606 151.697 46.5814 151.672 46.6082L151.421 46.8261C151.398 46.8465 151.371 46.8621 151.341 46.8719C151.312 46.8818 151.281 46.8857 151.25 46.8836C151.187 46.8792 151.129 46.8501 151.088 46.8027C151.046 46.7553 151.026 46.6935 151.03 46.6309C151.034 46.5683 151.064 46.51 151.111 46.4688L151.363 46.2495L151.367 46.2467C151.438 46.1807 151.523 46.1301 151.614 46.0979C151.706 46.0657 151.804 46.0526 151.901 46.0594C151.998 46.0662 152.092 46.0928 152.179 46.1375C152.265 46.1822 152.341 46.2441 152.403 46.3193L152.406 46.3227L153.064 47.0806C153.095 47.1159 153.115 47.1596 153.121 47.206C153.126 47.2525 153.118 47.2997 153.098 47.3416C153.077 47.3835 153.044 47.4182 153.003 47.4414C152.962 47.4646 152.916 47.4752 152.869 47.4718Z" fill="black"/>
<path d="M160.37 49.1845C160.195 49.1688 160.033 49.0842 159.92 48.9492C159.807 48.8142 159.753 48.6398 159.768 48.4645L159.91 46.441C159.984 45.3854 160.569 44.7271 161.596 44.5357C161.639 44.5283 161.682 44.5295 161.725 44.5393C161.767 44.5491 161.807 44.5673 161.842 44.5927C161.877 44.6182 161.907 44.6504 161.929 44.6875C161.952 44.7246 161.966 44.7658 161.973 44.8087C161.988 44.8958 161.97 44.9855 161.92 45.0589C161.871 45.1322 161.794 45.1832 161.708 45.2011C160.971 45.3393 160.612 45.7434 160.56 46.4865L160.536 46.8238L161.511 46.8921C161.677 46.9069 161.832 46.9841 161.944 47.1083C162.056 47.2325 162.117 47.3944 162.115 47.5616L162.113 47.6123L162.042 48.6242C162.033 48.7999 161.954 48.9649 161.824 49.0828C161.693 49.2007 161.521 49.262 161.345 49.2531L160.37 49.1845Z" fill="black"/>
<path d="M157.449 48.9797C157.274 48.964 157.112 48.8794 156.999 48.7444C156.886 48.6094 156.831 48.435 156.847 48.2597L156.989 46.2362C157.063 45.1808 157.647 44.5225 158.674 44.3311C158.717 44.3237 158.761 44.3249 158.803 44.3347C158.845 44.3445 158.885 44.3627 158.92 44.3881C158.956 44.4136 158.985 44.4458 159.008 44.4829C159.03 44.52 159.045 44.5612 159.051 44.6041C159.067 44.6912 159.048 44.781 158.999 44.8543C158.949 44.9276 158.873 44.9786 158.786 44.9965C158.05 45.1347 157.69 45.5389 157.638 46.2819L157.614 46.6188L158.589 46.6871C158.756 46.7019 158.911 46.7791 159.023 46.9033C159.135 47.0275 159.196 47.1894 159.193 47.3566L159.191 47.4073L159.12 48.4192C159.111 48.5949 159.033 48.7599 158.902 48.8778C158.772 48.9957 158.6 49.057 158.424 49.0481L157.449 48.9797Z" fill="black"/>
<path d="M123.454 127.938H38.1209C36.5707 127.939 35.0846 128.556 33.9884 129.652C32.8922 130.748 32.2756 132.234 32.2738 133.785C32.273 134.53 32.4163 135.269 32.6957 135.96C33.1298 137.044 33.8785 137.973 34.8454 138.628C35.8123 139.283 36.9532 139.633 38.1209 139.634H123.454C124.475 139.633 125.478 139.366 126.363 138.858C127.249 138.35 127.985 137.619 128.501 136.738C128.647 136.489 128.775 136.229 128.882 135.96C129.161 135.269 129.304 134.53 129.304 133.785C129.301 132.234 128.684 130.748 127.588 129.652C126.491 128.556 125.005 127.939 123.455 127.938L123.454 127.938Z" fill="#D6D6E3"/>
<path d="M87.3504 74.6675H74.9203V89.2784H87.3504V74.6675Z" fill="#ED9DA0"/>
<path d="M79.2721 65.2368H80.5715C81.2033 65.237 81.809 65.4881 82.2557 65.9348C82.7023 66.3816 82.9532 66.9874 82.9532 67.6191H76.8898C76.8898 66.9873 77.1408 66.3814 77.5875 65.9346C78.0343 65.4878 78.6403 65.2368 79.2721 65.2368Z" fill="#CCCCCC"/>
<path d="M81.1712 51.9087C86.8938 51.9087 93.7345 60.597 93.7345 60.597C93.7345 60.597 94.593 63.6406 94.593 65.3307C94.5929 67.9853 93.8057 70.5802 92.3309 72.7874C90.8561 74.9946 88.7599 76.7148 86.3073 77.7307C83.8548 78.7465 81.1562 79.0123 78.5526 78.4944C75.949 77.9764 73.5575 76.6981 71.6805 74.8211C69.8034 72.944 68.5251 70.5524 68.0073 67.9489C67.4894 65.3453 67.7552 62.6466 68.7711 60.1941C69.787 57.7416 71.5073 55.6455 73.7145 54.1707C75.9217 52.6959 78.5166 51.9087 81.1712 51.9087Z" fill="#ED9DA0"/>
<path d="M44.6718 138.681H118.912C118.415 133.018 118.091 111.37 118.091 109.946C118.091 103.662 112.95 96.8044 112.95 96.8044L111.109 95.7871L95.7389 90.9923L91.7612 85.8251C91.3446 85.2826 90.808 84.8439 90.1933 84.5438C89.5786 84.2437 88.9027 84.0901 88.2187 84.0953L75.6537 84.1899C74.5476 84.1983 73.4846 84.6194 72.673 85.3709L64.8922 92.5883L53.4808 98.0371L53.4615 98.0177L53.3432 98.1065L51.6496 99.3263L50.5615 100.114C50.5615 100.114 47.7016 103.542 45.4174 113.826C45.0737 115.373 44.8326 135.396 44.6718 138.681Z" fill="#F2F2F2"/>
<path d="M136.095 135.96C135.917 136.123 135.736 136.284 135.555 136.446C134.871 137.054 134.177 137.652 133.473 138.24C132.41 139.126 131.325 139.986 130.217 140.818H30.2755C28.2411 139.29 26.2807 137.67 24.3945 135.958L136.095 135.96Z" fill="#D6D6E3"/>
<path d="M99.4614 137.126H62.7219L63.4993 133.433H98.6832L99.4614 137.126Z" fill="#090814"/>
<path d="M132.699 121.188H123.14C122.924 121.187 122.711 121.234 122.515 121.324C122.319 121.415 122.146 121.547 122.007 121.712C121.874 121.687 121.738 121.674 121.603 121.674C121.001 121.674 120.425 121.912 119.999 122.338C119.574 122.763 119.335 123.34 119.335 123.941C119.335 124.542 119.574 125.119 119.999 125.544C120.425 125.969 121.001 126.208 121.603 126.208C121.945 126.209 122.282 126.13 122.589 125.98L122.75 127.939L123.383 135.683C123.413 135.78 123.454 135.873 123.504 135.961C123.632 136.196 123.821 136.393 124.051 136.53C124.282 136.667 124.545 136.739 124.813 136.739H131.028C131.296 136.738 131.559 136.666 131.789 136.529C132.019 136.392 132.209 136.196 132.337 135.961C132.386 135.873 132.425 135.779 132.456 135.683L134.128 123.122C134.196 122.898 134.212 122.661 134.172 122.431C134.133 122.2 134.04 121.982 133.901 121.794C133.762 121.606 133.581 121.453 133.372 121.348C133.163 121.242 132.933 121.187 132.699 121.188H132.699ZM121.602 125.561C121.173 125.561 120.76 125.39 120.456 125.087C120.152 124.783 119.981 124.37 119.981 123.94C119.981 123.51 120.152 123.098 120.456 122.794C120.76 122.49 121.173 122.319 121.602 122.319C121.631 122.319 121.659 122.327 121.688 122.329C121.624 122.59 121.632 122.864 121.712 123.12L122.396 125.344C122.155 125.484 121.881 125.558 121.603 125.56L121.602 125.561Z" fill="#39B772"/>
<path d="M111.747 78.6768H49.4264C48.8909 78.6773 48.3774 78.8903 47.9987 79.269C47.62 79.6477 47.407 80.1611 47.4065 80.6967V122.751C47.407 123.286 47.62 123.8 47.9987 124.179C48.3774 124.557 48.8909 124.77 49.4264 124.771H111.747C112.283 124.77 112.796 124.557 113.175 124.179C113.554 123.8 113.767 123.286 113.767 122.751V80.6967C113.767 80.1611 113.554 79.6477 113.175 79.269C112.796 78.8903 112.283 78.6773 111.747 78.6768Z" fill="#3F3D56"/>
<path d="M87.6641 112.809H73.5071C73.4078 112.809 73.3096 112.829 73.218 112.867C73.1264 112.905 73.0432 112.961 72.9731 113.031C72.9031 113.101 72.8476 113.185 72.8098 113.276C72.772 113.368 72.7527 113.466 72.7529 113.566V135.93H88.4205V113.565C88.4207 113.465 88.4012 113.367 88.3632 113.275C88.3252 113.183 88.2695 113.099 88.1991 113.029C88.1288 112.959 88.0453 112.903 87.9534 112.865C87.8615 112.827 87.7629 112.807 87.6635 112.808L87.6641 112.809ZM80.6333 125.516C80.1905 125.514 79.7664 125.337 79.4533 125.024C79.1403 124.711 78.9635 124.287 78.9614 123.844V121.265C78.959 121.044 79.0004 120.825 79.0833 120.62C79.1662 120.415 79.289 120.228 79.4444 120.071C79.5999 119.914 79.785 119.789 79.9891 119.704C80.1931 119.619 80.412 119.575 80.6332 119.575C80.8543 119.575 81.0732 119.619 81.2773 119.704C81.4813 119.789 81.6664 119.914 81.8219 120.071C81.9774 120.228 82.1001 120.415 82.183 120.62C82.2659 120.825 82.3074 121.044 82.3049 121.265V123.844C82.3029 124.287 82.1261 124.711 81.813 125.024C81.4999 125.337 81.076 125.514 80.6333 125.516Z" fill="#090814"/>
<path d="M72.7042 135.213V137.371C72.7044 137.482 72.749 137.59 72.828 137.669C72.9071 137.748 73.0143 137.792 73.1261 137.792H88.048C88.1598 137.792 88.2667 137.747 88.3457 137.668C88.4247 137.589 88.4694 137.482 88.4699 137.371V135.213H72.7042Z" fill="#3F3D56"/>
<path d="M109.82 122.459C110.348 122.459 110.776 122.031 110.776 121.503C110.776 120.976 110.348 120.548 109.82 120.548C109.293 120.548 108.865 120.976 108.865 121.503C108.865 122.031 109.293 122.459 109.82 122.459Z" fill="#2F2E41"/>
<path d="M58.2305 120.117C58.1418 120.117 58.0568 120.152 57.994 120.215C57.9313 120.278 57.8961 120.363 57.8961 120.451V122.172C57.8961 122.26 57.9313 122.345 57.994 122.408C58.0568 122.471 58.1418 122.506 58.2305 122.506C58.3192 122.506 58.4042 122.471 58.4669 122.408C58.5296 122.345 58.5648 122.26 58.5648 122.172V120.451C58.5648 120.362 58.5296 120.277 58.4669 120.215C58.4042 120.152 58.3192 120.117 58.2305 120.117V120.117Z" fill="#2F2E41"/>
<path d="M60.0457 120.117C60.0018 120.117 59.9583 120.126 59.9177 120.143C59.8772 120.159 59.8403 120.184 59.8092 120.215C59.7782 120.246 59.7536 120.283 59.7368 120.324C59.72 120.364 59.7113 120.408 59.7113 120.451V122.172C59.7113 122.26 59.7465 122.345 59.8092 122.408C59.872 122.471 59.957 122.506 60.0457 122.506C60.1344 122.506 60.2194 122.471 60.2821 122.408C60.3448 122.345 60.38 122.26 60.38 122.172V120.451C60.3801 120.407 60.3714 120.364 60.3547 120.323C60.3379 120.283 60.3133 120.246 60.2822 120.215C60.2512 120.184 60.2144 120.159 60.1738 120.142C60.1332 120.125 60.0898 120.117 60.0459 120.117L60.0457 120.117Z" fill="#2F2E41"/>
<path d="M61.8631 120.117C61.7744 120.117 61.6893 120.152 61.6266 120.215C61.5639 120.278 61.5287 120.363 61.5287 120.451V122.172C61.5287 122.26 61.5639 122.345 61.6266 122.408C61.6893 122.471 61.7744 122.506 61.8631 122.506C61.9517 122.506 62.0368 122.471 62.0995 122.408C62.1622 122.345 62.1974 122.26 62.1974 122.172V120.451C62.1974 120.407 62.1888 120.364 62.1719 120.323C62.1551 120.282 62.1305 120.246 62.0994 120.215C62.0683 120.184 62.0315 120.159 61.9909 120.142C61.9503 120.125 61.9068 120.117 61.8628 120.117L61.8631 120.117Z" fill="#2F2E41"/>
<path d="M63.677 120.117C63.5883 120.117 63.5033 120.152 63.4406 120.215C63.3779 120.278 63.3427 120.363 63.3427 120.451V122.172C63.3427 122.26 63.3779 122.345 63.4406 122.408C63.5033 122.471 63.5883 122.506 63.677 122.506C63.7657 122.506 63.8507 122.471 63.9135 122.408C63.9762 122.345 64.0114 122.26 64.0114 122.172V120.451C64.0114 120.362 63.9762 120.277 63.9135 120.215C63.8507 120.152 63.7657 120.117 63.677 120.117V120.117Z" fill="#2F2E41"/>
<path d="M65.1255 126.046C67.9165 126.046 71.2517 130.353 71.2517 133.144C71.2517 135.936 67.9165 136.154 65.1255 136.154C63.7851 136.154 62.4996 135.621 61.5518 134.673C60.604 133.726 60.0715 132.44 60.0715 131.1C60.0715 129.759 60.604 128.474 61.5518 127.526C62.4996 126.578 63.7851 126.046 65.1255 126.046Z" fill="#ED9DA0"/>
<path d="M100.434 127.018C101.774 127.018 103.059 127.551 104.007 128.498C104.955 129.446 105.488 130.732 105.488 132.072C105.488 133.412 104.955 134.698 104.007 135.646C103.059 136.593 101.774 137.126 100.434 137.126C97.6419 137.126 93.4757 134.863 93.4757 132.072C93.4757 129.281 97.6419 127.018 100.434 127.018Z" fill="#ED9DA0"/>
<path d="M89.85 51.8487L90.1202 50.394L86.482 49.7188C86.482 49.7188 81.3363 45.0001 75.4326 48.4206C69.5289 51.8412 66.9405 53.6182 66.9405 53.6182L64.2182 56.1235L66.2659 57.2563L63.6779 59.0339L65.8599 59.4391L63.9993 61.351L67.0649 67.5645C67.0649 67.5645 67.6375 62.0255 72.0031 62.8358C76.3688 63.646 82.5434 58.7718 82.5434 58.7718L91.9724 68.8018C91.9724 68.8018 92.0513 64.3214 94.5999 64.784C94.5995 64.7842 97.7187 54.0618 89.85 51.8487Z" fill="#090814"/>
<path d="M108.87 29.8683H63.883C63.7398 29.8678 63.6026 29.8108 63.5014 29.7095C63.4002 29.6083 63.3431 29.4711 63.3427 29.328V1.5403C63.3431 1.39714 63.4002 1.25997 63.5014 1.15874C63.6026 1.0575 63.7398 1.00044 63.883 1H108.87C109.013 1.00044 109.151 1.0575 109.252 1.15874C109.353 1.25997 109.41 1.39714 109.41 1.5403V29.3269C109.41 29.4703 109.353 29.6077 109.252 29.7092C109.151 29.8106 109.014 29.8678 108.87 29.8683Z" fill="white"/>
<path d="M108.87 29.8683H63.883C63.7398 29.8678 63.6026 29.8108 63.5014 29.7095C63.4002 29.6083 63.3431 29.4711 63.3427 29.328V1.5403C63.3431 1.39714 63.4002 1.25997 63.5014 1.15874C63.6026 1.0575 63.7398 1.00044 63.883 1H108.87C109.013 1.00044 109.151 1.0575 109.252 1.15874C109.353 1.25997 109.41 1.39714 109.41 1.5403V29.3269C109.41 29.4703 109.353 29.6077 109.252 29.7092C109.151 29.8106 109.014 29.8678 108.87 29.8683Z" stroke="#D7D7D7" stroke-width="2" stroke-miterlimit="10"/>
<path d="M93.0599 20.5237H65.154C65.0211 20.5328 64.8899 20.4893 64.7889 20.4026C64.6878 20.3158 64.6248 20.1928 64.6136 20.0601V4.91744C64.6248 4.78472 64.6878 4.66172 64.7889 4.57499C64.8899 4.48825 65.0211 4.44473 65.154 4.45382H93.0599C93.1927 4.44473 93.3239 4.48825 93.425 4.57499C93.526 4.66172 93.589 4.78472 93.6002 4.91744V20.0603C93.589 20.193 93.526 20.316 93.425 20.4028C93.3239 20.4895 93.1927 20.533 93.0599 20.5239V20.5237Z" fill="#39B772"/>
<path d="M66.8911 3.40593H64.8462C64.7031 3.40549 64.5659 3.34843 64.4646 3.2472C64.3634 3.14597 64.3063 3.00879 64.3059 2.86563V2.62478C64.3063 2.48161 64.3634 2.34444 64.4646 2.24321C64.5659 2.14198 64.7031 2.08491 64.8462 2.08447H66.8911C67.0342 2.08491 67.1714 2.14198 67.2726 2.24321C67.3739 2.34444 67.4309 2.48161 67.4314 2.62478V2.86542C67.4309 3.00858 67.3739 3.14576 67.2726 3.24699C67.1714 3.34822 67.0342 3.40549 66.8911 3.40593Z" fill="#E6E6E6"/>
<path d="M103.097 3.40593H101.894C101.751 3.40549 101.614 3.34843 101.513 3.2472C101.412 3.14597 101.355 3.00879 101.354 2.86563V2.62478C101.355 2.48161 101.412 2.34444 101.513 2.24321C101.614 2.14198 101.751 2.08491 101.894 2.08447H103.097C103.24 2.08491 103.378 2.14198 103.479 2.24321C103.58 2.34444 103.637 2.48161 103.638 2.62478V2.86542C103.637 3.00858 103.58 3.14576 103.479 3.24699C103.378 3.34822 103.24 3.40529 103.097 3.40573L103.097 3.40593Z" fill="#E6E6E6"/>
<path d="M92.8724 28.7856H80.0021C79.8589 28.7852 79.7217 28.7282 79.6205 28.6269C79.5192 28.5257 79.4622 28.3885 79.4618 28.2453V24.0344C79.4622 23.8913 79.5192 23.7541 79.6205 23.6528C79.7217 23.5516 79.8589 23.4945 80.0021 23.4941H92.8726C93.0157 23.4945 93.153 23.5516 93.2542 23.6528C93.3554 23.7541 93.4125 23.8913 93.4129 24.0344V28.2445C93.4127 28.3878 93.3557 28.5252 93.2544 28.6266C93.1531 28.7281 93.0157 28.7852 92.8724 28.7856Z" fill="#E6E6E6"/>
<path d="M77.6649 28.7564H64.7945C64.6513 28.756 64.5141 28.6989 64.4129 28.5977C64.3117 28.4965 64.2546 28.3593 64.2542 28.2161V24.0047C64.2546 23.8615 64.3117 23.7243 64.4129 23.6231C64.5141 23.5219 64.6513 23.4648 64.7945 23.4644H77.6649C77.8081 23.4648 77.9453 23.5219 78.0465 23.6231C78.1477 23.7243 78.2048 23.8615 78.2052 24.0047V28.2147C78.2048 28.3578 78.1477 28.495 78.0465 28.5962C77.9453 28.6975 77.8081 28.7545 77.6649 28.755V28.7564Z" fill="#E6E6E6"/>
<path d="M107.908 23.4922C108.051 23.4926 108.188 23.5497 108.29 23.6509C108.391 23.7522 108.448 23.8893 108.448 24.0325V28.2425C108.448 28.3857 108.391 28.5228 108.29 28.6241C108.188 28.7253 108.051 28.7824 107.908 28.7828H95.0377C94.8946 28.7824 94.7574 28.7254 94.6561 28.6241C94.5549 28.5229 94.4978 28.3857 94.4974 28.2425V24.0344C94.4978 23.8912 94.5549 23.754 94.6561 23.6527C94.7574 23.5515 94.8946 23.4944 95.0377 23.4941" fill="#E6E6E6"/>
<path d="M95.0374 10.3027C94.9577 10.3028 94.8813 10.3346 94.8249 10.3909C94.7685 10.4473 94.7368 10.5237 94.7367 10.6034V10.8441C94.7368 10.9238 94.7685 11.0002 94.8249 11.0566C94.8813 11.113 94.9577 11.1447 95.0374 11.1448H102.014C102.094 11.1447 102.17 11.113 102.226 11.0566C102.283 11.0002 102.315 10.9238 102.315 10.8441V10.6034C102.315 10.5237 102.283 10.4473 102.226 10.3909C102.17 10.3346 102.094 10.3028 102.014 10.3027H95.0374Z" fill="#E6E6E6"/>
<path d="M95.0374 12.2271C94.9576 12.2271 94.8812 12.2587 94.8248 12.3151C94.7684 12.3715 94.7367 12.448 94.7367 12.5278C94.7367 12.6075 94.7684 12.684 94.8248 12.7404C94.8812 12.7968 94.9576 12.8285 95.0374 12.8285H105.743C105.822 12.8285 105.899 12.7968 105.955 12.7404C106.012 12.684 106.043 12.6075 106.043 12.5278C106.043 12.448 106.012 12.3715 105.955 12.3151C105.899 12.2587 105.822 12.2271 105.743 12.2271H95.0374Z" fill="#E6E6E6"/>
<path d="M95.0374 13.9111C94.9576 13.9111 94.8812 13.9428 94.8248 13.9992C94.7684 14.0556 94.7367 14.1321 94.7367 14.2118C94.7367 14.2916 94.7684 14.3681 94.8248 14.4245C94.8812 14.4809 94.9576 14.5125 95.0374 14.5125H105.743C105.822 14.5125 105.899 14.4809 105.955 14.4245C106.012 14.3681 106.043 14.2916 106.043 14.2118C106.043 14.1321 106.012 14.0556 105.955 13.9992C105.899 13.9428 105.822 13.9111 105.743 13.9111H95.0374Z" fill="#E6E6E6"/>
<path d="M105.502 3.40593H104.299C104.156 3.40549 104.019 3.34843 103.918 3.2472C103.816 3.14597 103.759 3.00879 103.759 2.86563V2.62478C103.759 2.48161 103.816 2.34444 103.918 2.24321C104.019 2.14198 104.156 2.08491 104.299 2.08447H105.502C105.645 2.08486 105.782 2.1419 105.884 2.24315C105.985 2.34439 106.042 2.4816 106.042 2.62478V2.86542C106.042 3.00864 105.985 3.1459 105.884 3.24718C105.782 3.34847 105.645 3.40555 105.502 3.40593Z" fill="#E6E6E6"/>
<path d="M107.908 3.40593H106.705C106.562 3.40549 106.425 3.34843 106.324 3.2472C106.222 3.14597 106.165 3.00879 106.165 2.86563V2.62478C106.165 2.48161 106.222 2.34444 106.324 2.24321C106.425 2.14198 106.562 2.08491 106.705 2.08447H107.908C108.051 2.08491 108.188 2.14198 108.29 2.24321C108.391 2.34444 108.448 2.48161 108.448 2.62478V2.86542C108.448 3.00858 108.391 3.14576 108.29 3.24699C108.188 3.34822 108.051 3.40549 107.908 3.40593Z" fill="#E6E6E6"/>
</svg>
