<svg width="143" height="106" viewBox="0 0 143 106" fill="none" xmlns="http://www.w3.org/2000/svg">
<path d="M65.0007 37.5525V105.614H66.8013V37.5525H65.0007Z" fill="#D6D6E3"/>
<path d="M73.6436 36.1118H0V37.9126H36.0116V105.614H37.8121V37.9126H73.6436V36.1118Z" fill="#D6D6E3"/>
<path d="M122.802 18.6942L130.272 17.7769L130.848 25.7171H121.331L122.802 18.6942Z" fill="#ED9DA0"/>
<path d="M142.224 105.509C142.227 105.566 142.206 105.621 142.168 105.663C142.129 105.704 142.076 105.729 142.019 105.732H0V105.287H142.019C142.076 105.29 142.129 105.314 142.168 105.356C142.206 105.397 142.226 105.452 142.224 105.509Z" fill="#F2F2F2"/>
<path d="M97.6819 35.1372C97.6819 35.1372 89.3766 36.1361 90.7775 29.5693C92.1784 23.0024 100.122 10.8735 100.122 10.8735L104.629 13.4014L99.4542 25.6341L101.682 27.3916L97.6819 35.1372Z" fill="#ED9DA0"/>
<path d="M124.899 27.1427L123.729 36.7682L94.4022 36.6246L100.292 26.3882L124.899 27.1427Z" fill="#39B772"/>
<path d="M107.47 11.3847C109.264 8.87842 109.408 5.90836 107.791 4.75085C106.174 3.59334 103.409 4.68672 101.615 7.19298C99.8207 9.69923 99.677 12.6693 101.294 13.8268C102.911 14.9843 105.676 13.8909 107.47 11.3847Z" fill="#ED9DA0"/>
<path d="M122.079 63.8404V105.614H123.88V63.8404H122.079Z" fill="#D6D6E3"/>
<path d="M113.436 63.8404V105.614H115.237V63.8404H113.436Z" fill="#D6D6E3"/>
<path d="M93.9901 63.8404V105.614H95.7906V63.8404H93.9901Z" fill="#D6D6E3"/>
<path d="M87.0996 63.8404V105.614H88.9002V63.8404H87.0996Z" fill="#D6D6E3"/>
<path d="M120.459 62.9395H85.6875L79.0174 72.4006L113.616 74.4628L120.459 62.9395Z" fill="#3F3D56"/>
<path d="M56.7659 29.683L56.9476 21.7896L32.807 23.6472L32.6834 28.9953L56.7659 29.683Z" fill="#ED9DA0"/>
<path d="M40.4275 22.7041L39.273 25.4819L37.6148 25.5353C37.6148 25.5353 39.5564 26.1298 40.0956 29.6578L38.5023 30.1353C38.5023 30.1353 36.9722 31.5629 34.1111 31.4244L26.4422 30.783L26.4127 28.1095L31.7131 27.4971C31.7131 27.4971 32.8941 26.7202 27.0476 23.5256C27.0476 23.5256 25.1108 22.3413 26.852 16.493C26.966 16.0995 27.2017 15.7521 27.5253 15.5008C27.8488 15.2494 28.2436 15.1069 28.6531 15.0937C29.1153 15.0837 29.5495 15.2499 29.7226 15.8247C30.1632 17.2878 29.7175 18.7464 30.9283 19.6596C32.1392 20.5729 40.4259 22.7046 40.4259 22.7046L40.4275 22.7041Z" fill="#141008"/>
<path d="M117.898 55.4555C117.898 55.4555 110.658 67.7707 94.2734 65.5513C92.3495 65.2895 90.5115 64.5886 88.9017 63.5029C87.2919 62.4172 85.9534 60.9758 84.9897 59.2901C81.2124 52.6896 75.4765 41.1323 77.3361 34.588L49.6251 29.2993L47.4418 22.5694L77.4319 18.6737C78.729 18.5052 80.0469 18.7257 81.2185 19.3073C82.39 19.8889 83.3625 20.8053 84.0125 21.9404L98.6214 47.4533L102.977 47.9289L117.899 55.4555H117.898Z" fill="#090814"/>
<path d="M57.3365 33.379L56.942 26.5273L36.1536 29.8245L36.4203 34.4674L57.3365 33.379Z" fill="#ED9DA0"/>
<path opacity="0.046" d="M57.3365 33.3795L56.942 26.5278L36.1536 29.8249L36.4203 34.4679L57.3365 33.3795Z" fill="#090814"/>
<path d="M40.5481 27.2722L39.6208 30.1345L37.9723 30.3206C37.9723 30.3206 39.9552 30.7571 40.7768 34.2302L39.227 34.8346C39.227 34.8346 37.8167 36.3813 34.9546 36.4727L27.259 36.4503L27.0146 33.7879L32.2485 32.7509C32.2485 32.7509 33.3631 31.8814 27.2786 29.1677C27.2786 29.1677 25.2528 28.143 26.5186 22.1735C26.6006 21.7721 26.8076 21.4069 27.1098 21.1304C27.4121 20.8538 27.7942 20.68 28.2013 20.6339C28.6617 20.5866 29.108 20.7175 29.3261 21.2766C29.8829 22.6988 29.556 24.1892 30.8372 25.0021C32.1185 25.8151 40.549 27.2733 40.549 27.2733L40.5481 27.2722Z" fill="#141008"/>
<path d="M120.316 54.6114C120.316 54.6114 114.089 67.4692 97.5796 66.576C95.6409 66.4699 93.7525 65.9192 92.0606 64.9666C90.3687 64.0141 88.9185 62.6852 87.8223 61.0826C83.5262 54.807 76.879 43.749 78.2061 37.0764L50.1595 34.034L47.4418 27.5017L77.0212 21.2052C78.3006 20.9329 79.6319 21.0467 80.8465 21.5322C82.061 22.0177 83.104 22.8529 83.8432 23.932L100.457 48.1868L104.836 48.3112L120.316 54.6114Z" fill="#090814"/>
<path d="M101.336 0.316895L99.8956 1.39727L107.458 11.8406L108.898 11.4804L101.336 0.316895Z" fill="#3F3D56"/>
<path d="M120.999 23.5076L129.281 23.1475L132.883 39.3527C132.883 39.3527 119.738 65.8206 110.736 64.7397V61.1397C110.736 59.6997 103.173 56.098 103.173 56.098L101.373 49.976L106.774 41.6933C106.774 41.6933 108.935 35.2113 116.137 31.6102L120.999 23.5076Z" fill="#39B772"/>
<path d="M125.32 22.0674C130.69 22.0674 135.043 17.7142 135.043 12.3443C135.043 6.9743 130.69 2.62109 125.32 2.62109C119.95 2.62109 115.597 6.9743 115.597 12.3443C115.597 17.7142 119.95 22.0674 125.32 22.0674Z" fill="#ED9DA0"/>
<path d="M89.9297 22.0669L82.2371 25.1263L97.3307 45.1143L102.634 41.0352L89.9297 22.0669Z" fill="#E6E6E6"/>
<path d="M117.938 58.6187C117.938 58.6187 115.417 66.5944 110.015 62.6068C104.613 58.6192 96.8482 46.3755 96.8482 46.3755L101.012 43.3145L110.015 53.0801L112.536 51.7772L117.938 58.6187Z" fill="#ED9DA0"/>
<path d="M121.899 30.5298L130.182 35.5715L117.938 62.2207L110.014 51.4172L121.899 30.5298Z" fill="#39B772"/>
<path d="M100.022 46.5275C101.745 45.5331 101.891 42.5627 100.35 39.893C98.8087 37.2233 96.163 35.8652 94.4406 36.8596C92.7182 37.854 92.5714 40.8244 94.1128 43.4941C95.6541 46.1638 98.2999 47.5219 100.022 46.5275Z" fill="#ED9DA0"/>
<path d="M126.384 41.783C128.532 34.7393 132.311 31.9663 132.311 31.9663C132.311 31.9663 133.981 32.4088 134.372 32.6342C136.515 33.868 137.16 36.6762 135.904 38.8064C132.703 44.236 126.107 56.676 127.481 64.9211C127.481 64.9211 129.642 76.4448 112.356 76.4448C95.0704 76.4448 78.5052 72.4835 78.5052 72.4835L87.5082 71.0435L107.982 72.5059C112.659 72.84 116.602 68.8376 115.977 64.1899C115.956 64.0365 115.932 63.8814 115.903 63.7245C114.877 58.0794 126.383 41.7835 126.383 41.7835L126.384 41.783Z" fill="#D6D6E3"/>
<path d="M121.676 8.31346C121.493 8.82584 121.44 9.37568 121.522 9.91348C121.605 10.4513 121.82 10.9601 122.148 11.3942C122.476 11.8283 122.907 12.174 123.401 12.4001C123.896 12.6263 124.44 12.7258 124.982 12.6897L125.039 12.686C125.809 13.6485 126.237 14.8397 126.256 16.0722C126.276 17.3048 125.885 18.5088 125.145 19.495C125.02 22.1094 125.43 24.7219 126.349 27.1728C126.349 27.1728 127.291 32.8009 128.931 34.0587C130.571 35.3165 132.906 32.2036 132.906 32.2036C132.906 32.2036 132.899 35.4022 135.132 35.1521C137.366 34.9019 140.748 36.4166 141.841 31.2034C142.935 25.9902 139.166 16.3856 139.166 16.3856L137.113 8.17515C136.766 6.78728 136.147 5.48222 135.291 4.33586C134.435 3.18951 133.36 2.22474 132.128 1.49768C130.896 0.770615 129.532 0.295765 128.115 0.100746C126.698 -0.094273 125.256 -0.00556852 123.873 0.3617L119.408 1.54785C118.572 1.76997 117.789 2.15937 117.108 2.69249C116.426 3.22561 115.86 3.89139 115.443 4.64957C115.027 5.40774 114.768 6.24257 114.683 7.10358C114.598 7.96458 114.689 8.83388 114.949 9.65891L121.676 8.31346Z" fill="#090814"/>
</svg>
