<svg width="220" height="196" viewBox="0 0 220 196" fill="none" xmlns="http://www.w3.org/2000/svg">
<path d="M0 189.83C0 190.138 0.161784 190.388 0.362575 190.389H219.635C219.837 190.389 220 190.139 220 189.83C220 189.521 219.837 189.271 219.635 189.271H0.364772C0.163981 189.271 0.00054936 189.519 0 189.827V189.83Z" fill="#E6E6E6"/>
<path d="M204.058 126.311L207.191 139.764C207.226 139.913 207.221 140.07 207.176 140.217L192.96 186.447C192.904 186.63 192.789 186.787 192.635 186.893C192.48 186.998 192.296 187.045 192.112 187.026C191.929 187.007 191.757 186.924 191.625 186.789C191.494 186.654 191.41 186.477 191.389 186.286L189.423 168.277C189.41 168.158 189.422 168.037 189.457 167.922L202.505 126.25C202.559 126.076 202.667 125.925 202.811 125.821C202.955 125.716 203.128 125.663 203.304 125.671C203.479 125.678 203.648 125.744 203.784 125.86C203.92 125.976 204.016 126.134 204.057 126.312L204.058 126.311Z" fill="#2F2E41"/>
<path d="M202.904 127.446L205.798 138.988L193.26 181.141L190.367 168.094L202.904 127.446Z" fill="#39B772"/>
<path d="M139.734 190.176C140.216 191.681 189.885 189.674 190.367 189.172C190.788 188.544 191.143 187.871 191.428 187.165C191.881 186.161 192.296 185.158 192.296 185.158L190.367 168.908L141.181 167.092C141.181 167.092 139.951 180.862 139.7 187.165C139.615 188.167 139.626 189.176 139.734 190.176Z" fill="#2F2E41"/>
<path opacity="0.1" d="M184.098 171.105L185.062 185.156H163.363V171.105H184.098Z" fill="black"/>
<path opacity="0.1" d="M156.129 175.621L156.259 175.595L155.647 181.643H143.592V175.621H156.129Z" fill="black"/>
<path opacity="0.1" d="M139.734 190.175C140.216 191.681 189.885 189.674 190.367 189.172C190.788 188.543 191.143 187.871 191.428 187.165H139.7C139.615 188.167 139.626 189.175 139.734 190.175Z" fill="black"/>
<path d="M63.0602 137.485H76.5624L109.836 123.935C109.836 123.935 133.465 113.899 131.535 132.968C129.606 152.038 126.231 177.631 126.231 177.631C126.231 177.631 115.622 172.612 109.835 174.118C104.049 175.623 107.906 143.505 107.906 143.505C107.906 143.505 60.6477 167.091 56.3078 164.08C51.9678 161.069 51.0034 139.993 51.0034 139.993L63.0602 137.485Z" fill="#090814"/>
<path d="M84.333 93.4805L100.673 117.912L138.769 151.033C138.769 151.033 168.698 161.72 163.875 167.742C159.052 173.764 134.91 159.564 134.91 159.564C134.91 159.564 91.0291 126.443 89.5838 123.934C88.1384 121.425 72.224 97.8393 72.224 97.8393L84.333 93.4805Z" fill="#ED9DA0"/>
<path opacity="0.058" d="M84.333 93.4805L100.673 117.912L138.769 151.033C138.769 151.033 170.163 163.221 165.341 169.243C160.519 175.265 134.911 159.564 134.911 159.564C134.911 159.564 91.0291 126.443 89.5838 123.934C88.1384 121.425 72.224 97.8393 72.224 97.8393L84.333 93.4805Z" fill="black"/>
<path d="M80.4202 64.2171C80.4202 64.2171 73.1868 77.2645 71.7403 84.2901C70.2939 91.3156 50.0406 70.239 50.0406 70.239L47.3883 62.9625C47.3883 62.9625 66.436 53.6788 64.9895 46.1514C63.5431 38.6239 80.4202 64.2171 80.4202 64.2171Z" fill="#ED9DA0"/>
<path d="M81.8664 66.7262C93.851 66.7262 103.566 56.6159 103.566 44.1441C103.566 31.6724 93.851 21.562 81.8664 21.562C69.8818 21.562 60.1664 31.6724 60.1664 44.1441C60.1664 56.6159 69.8818 66.7262 81.8664 66.7262Z" fill="#ED9DA0"/>
<path d="M84.2781 103.359L104.049 130.458L151.307 167.091C151.307 167.091 177.237 173.885 169.521 179.405C161.806 184.925 147.931 175.12 147.931 175.12C147.931 175.12 100.192 148.524 90.0645 137.483C79.937 126.443 61.1313 107.876 61.1313 107.876L84.2781 103.359Z" fill="#ED9DA0"/>
<path d="M57.7558 145.513L63.5425 155.048L98.078 143.741C101.819 142.483 105.778 142.085 109.682 142.575C113.585 143.065 117.34 144.431 120.686 146.58C126.714 150.531 130.572 156.804 121.892 166.088C104.532 184.656 92.9583 174.619 92.9583 174.619C92.9583 174.619 34.6094 203.223 24.9645 189.172C15.3197 175.121 14.8379 168.095 14.8379 168.095C14.8379 168.095 51.9691 144.008 57.7558 145.513Z" fill="#2F2E41"/>
<path d="M130.089 178.634C130.089 178.634 145.52 189.172 127.196 194.19C108.872 199.208 95.3694 192.183 95.3694 192.183C95.3694 192.183 79.4561 192.183 79.4561 183.652C79.4561 175.121 84.7604 174.117 84.7604 174.117L101.156 176.626C101.156 176.626 120.927 171.106 130.089 178.634Z" fill="#D6D6E3"/>
<path d="M74.6335 73.752L85.2425 95.3305C85.2425 95.3305 82.8313 105.869 78.9737 106.872C75.1161 107.876 58.7202 93.8252 58.7202 93.8252L74.6335 73.752Z" fill="#39B772"/>
<path d="M45.6652 60.5826C46.6415 60.3116 47.6693 60.3143 48.6442 60.5906C51.7395 61.4553 58.679 63.7446 60.1667 67.2285C62.0955 71.7449 68.8466 78.7704 68.8466 78.7704C68.8466 78.7704 78.0088 88.3051 76.08 94.8289C74.1512 101.353 66.9181 108.881 66.9181 108.881C66.9181 108.881 68.8469 139.995 59.2026 148.024C49.5583 156.053 45.7001 150.533 45.7001 158.06C45.7001 165.588 15.8015 189.172 10.0156 174.619C10.0156 174.619 12.9091 147.521 11.9444 137.986C10.9946 128.589 12.3856 69.9583 45.6652 60.5826Z" fill="#39B772"/>
<path d="M61.1311 73.2499C61.1311 73.2499 90.5469 95.8317 85.2422 105.367C85.2422 105.367 67.4001 114.399 63.5425 113.898C59.6849 113.396 44.7357 95.8323 40.8781 94.3264C37.0205 92.8206 35.0912 65.7227 61.1311 73.2499Z" fill="#39B772"/>
<path d="M67.0851 13.2134C68.4289 12.7704 69.9209 12.465 71.2199 13.0344C72.5189 13.6039 73.3961 15.3734 72.6299 16.6035C76.6874 13.1173 81.7953 11.2298 87.0569 11.2724C92.3185 11.315 97.3976 13.285 101.402 16.8364C104.228 19.3431 106.548 23.0237 106 26.8451C105.86 27.826 105.536 28.8334 105.807 29.7844C106.15 30.9831 107.381 31.7152 108.578 31.82L108.614 31.823C108.82 31.831 109.019 31.9031 109.185 32.03C109.351 32.1569 109.476 32.3327 109.545 32.5347C109.614 32.7368 109.624 32.9557 109.572 33.1632C109.52 33.3707 109.409 33.5572 109.254 33.6986L107.667 35.1242C108.733 35.8604 109.955 36.3175 111.227 36.4566C111.438 36.4808 111.637 36.5724 111.796 36.7187C111.955 36.8651 112.066 37.0591 112.115 37.274C112.164 37.489 112.148 37.7145 112.069 37.9194C111.99 38.1244 111.851 38.2989 111.673 38.4189C107.016 41.5577 100.883 42.3362 95.6961 40.226C92.0093 38.7263 88.7648 35.9094 84.8423 35.3572C83.3248 35.1435 81.7805 35.2861 80.3228 35.7745C78.8651 36.2629 77.531 37.0847 76.4184 38.1796C75.3057 39.2746 74.4427 40.6149 73.8928 42.1022C73.3428 43.5895 73.1198 45.1861 73.2401 46.7747C72.5991 45.0756 70.3539 44.5195 68.7685 45.3017C67.183 46.0838 66.2121 47.8068 65.6999 49.5526C64.915 52.2222 64.9912 55.0633 65.1425 57.8595C56.5954 54.1201 50.7417 44.5353 51.1384 34.8926C51.5355 25.2096 58.2067 16.1406 67.0851 13.2134Z" fill="#090814"/>
</svg>
