<svg width="160" height="177" viewBox="0 0 160 177" fill="none" xmlns="http://www.w3.org/2000/svg">
<path d="M148.77 172.132H0V171.716H148.77V172.132Z" fill="#E6E6E6"/>
<path opacity="0.495" d="M63.1639 120.83C63.1639 119.609 62.8017 118.617 62.3569 118.614H28.8475C28.4013 118.617 28.0405 119.608 28.0379 120.83V171.127C28.0431 171.234 28.009 171.34 27.942 171.423C27.8749 171.507 27.7795 171.563 27.6738 171.582C27.3483 171.617 27.0228 171.65 26.6972 171.68C26.689 171.68 26.6809 171.682 26.6731 171.682C26.4959 171.701 26.3187 171.714 26.1419 171.73H26.1399C26.0488 171.539 25.9587 171.347 25.8696 171.153C25.8393 171.086 25.8236 171.014 25.8237 170.941V117.956C25.8237 117.62 25.8359 117.28 25.856 116.945C25.8849 116.484 25.9351 116.027 26.0069 115.572C26.3469 113.455 27.116 112.021 27.9895 112.016H63.2123C63.3409 112.017 63.4676 112.048 63.5827 112.105C63.7579 112.194 63.9133 112.317 64.0396 112.468C64.2184 112.679 64.3692 112.913 64.4883 113.162C64.9191 114.022 65.227 115.303 65.3356 116.793C65.3356 116.807 65.3375 116.82 65.3375 116.834C65.3657 117.203 65.3797 117.579 65.3787 117.956L65.4069 122.84L65.4254 125.753L65.4799 134.894L65.5005 138.14L65.589 171.467C65.5955 171.581 65.5569 171.692 65.4816 171.778C65.4062 171.863 65.3002 171.915 65.1866 171.923H63.5677C63.4541 171.915 63.3481 171.863 63.2727 171.778C63.1973 171.692 63.1587 171.581 63.1652 171.467L63.1639 120.83Z" fill="#E6E6E6"/>
<path d="M39.5372 98.8103L37.206 109.066L35.7165 110.697H34.642L39.0711 92.0508L39.29 95.2203V95.2226L39.5372 98.8103Z" fill="#090814"/>
<path d="M50.7547 109.291L37.0805 109.205L35.8662 109.196L34.9997 109.191L33.9912 109.185H33.983C33.8365 109.185 33.696 109.243 33.5919 109.346L31.8893 111.049C31.8514 111.087 31.8207 111.131 31.7987 111.179C31.7881 111.193 31.7793 111.208 31.7726 111.223C31.7357 111.309 31.7204 111.402 31.7281 111.495C31.7359 111.588 31.7663 111.678 31.8168 111.756C31.8674 111.835 31.9364 111.899 32.0178 111.945C32.0992 111.99 32.1906 112.015 32.2838 112.017H49.9981C50.1044 112.016 50.2085 111.986 50.2982 111.929C50.388 111.872 50.4598 111.791 50.5054 111.695L50.6444 111.393L50.93 110.779L51.2538 110.087C51.2883 110.013 51.3062 109.933 51.306 109.851C51.3053 109.704 51.2469 109.563 51.1434 109.459C51.0398 109.355 50.8994 109.295 50.7524 109.294L50.7547 109.291Z" fill="#090814"/>
<path opacity="0.17" d="M39.2899 95.2188V95.221L35.4975 110.698H34.6424L39.0709 92.0503L39.2899 95.2188Z" fill="black"/>
<path d="M43.9433 98.0548L38.5753 57.2154C38.5555 57.0623 38.4759 56.9233 38.3538 56.8289L34.6586 52.2037L34.3267 51.9481C34.2036 51.8549 34.049 51.8138 33.8959 51.8334L33.3402 51.9077C33.1871 51.9276 33.0481 52.0074 32.9537 52.1296C32.8594 52.2519 32.8174 52.4066 32.837 52.5597L38.3999 94.8748V94.8767L38.7407 97.4652L39.1454 100.539V100.543L39.7733 105.325C39.7833 105.407 39.8109 105.485 39.8544 105.556C39.8978 105.626 39.9559 105.686 40.0248 105.731C40.0926 105.778 40.1695 105.81 40.2505 105.824C40.3315 105.839 40.4147 105.836 40.4945 105.816L40.8476 105.727C40.9828 105.693 41.1013 105.611 41.1823 105.498L41.3393 105.275L41.4118 105.17L43.8434 98.4665C43.9275 98.3468 43.9632 98.1997 43.9433 98.0548Z" fill="#090814"/>
<path opacity="0.17" d="M34.6574 52.2034L41.4099 105.17L41.3365 105.273L41.18 105.496C41.0991 105.61 40.9806 105.691 40.8454 105.725L40.4922 105.814C40.4124 105.834 40.3293 105.837 40.2483 105.822C40.1674 105.808 40.0904 105.776 40.0224 105.73C39.9544 105.683 39.897 105.623 39.8538 105.553C39.8106 105.483 39.7827 105.405 39.7719 105.323L32.838 52.5595C32.8281 52.4836 32.8331 52.4064 32.853 52.3325C32.8728 52.2586 32.907 52.1893 32.9536 52.1286C33.0002 52.0678 33.0583 52.0169 33.1246 51.9786C33.1909 51.9404 33.2641 51.9156 33.34 51.9056L33.8978 51.8323C33.9733 51.8221 34.0502 51.827 34.1238 51.8468C34.1975 51.8666 34.2664 51.9009 34.3267 51.9476L34.6574 52.2034Z" fill="#090814"/>
<path d="M34.8573 53.7183L38.4407 58.8327L42.6994 91.2379L40.3904 95.8185L34.8573 53.7183Z" fill="#39B772"/>
<path opacity="0.389" d="M102.279 170.201C102.279 169.921 102.357 169.647 102.504 169.408C102.65 169.17 102.86 168.977 103.11 168.851H98.4034C98.708 169.006 98.9515 169.259 99.0947 169.57C99.2379 169.88 99.2723 170.23 99.1925 170.562C99.1127 170.894 98.9233 171.19 98.6549 171.402C98.3864 171.614 98.0545 171.729 97.7126 171.729C97.3707 171.729 97.0388 171.614 96.7703 171.402C96.5018 171.19 96.3124 170.894 96.2326 170.562C96.1528 170.23 96.1873 169.88 96.3304 169.57C96.4736 169.259 96.7171 169.006 97.0218 168.851H78.6141C78.919 169.006 79.1628 169.259 79.3061 169.57C79.4494 169.881 79.484 170.23 79.4042 170.563C79.3244 170.896 79.1348 171.192 78.8662 171.404C78.5975 171.616 78.2653 171.731 77.9232 171.731C77.581 171.731 77.2488 171.616 76.9802 171.404C76.7115 171.192 76.522 170.896 76.4422 170.563C76.3624 170.23 76.3969 169.881 76.5402 169.57C76.6836 169.259 76.9273 169.006 77.2323 168.851H72.5253C72.8429 169.012 73.0939 169.28 73.2344 169.607C73.375 169.935 73.3962 170.301 73.2945 170.643C73.1928 170.984 72.9746 171.279 72.6778 171.477C72.381 171.674 72.0244 171.761 71.6702 171.722C71.3159 171.684 70.9864 171.522 70.7389 171.266C70.4915 171.009 70.3418 170.674 70.3159 170.319C70.29 169.963 70.3895 169.61 70.5972 169.321C70.8049 169.031 71.1075 168.823 71.4524 168.734V166.843L85.9828 166.763V140.111C83.993 139.755 83.1938 139.045 83.1938 139.045L79.4456 139.06V138.355C63.6696 137.838 67.5665 132.235 67.5665 132.235C67.5665 132.235 71.4479 132.338 76.247 132.286C75.0218 127.451 70.3624 107.148 76.5208 99.8752C83.532 91.5927 97.216 91.8397 104.566 100.202C111.155 107.701 107.015 128.382 106.089 132.579C108.688 134.246 106.171 136.691 106.171 136.691C106.171 136.691 104.202 137.116 100.513 137.544V139.06L92.1487 139.213C92.1487 139.213 92.2333 139.594 91.4726 139.906V166.733L103.975 166.665V168.696C104.265 168.73 104.539 168.848 104.763 169.035C104.988 169.221 105.154 169.469 105.241 169.748C105.329 170.026 105.334 170.324 105.256 170.606C105.178 170.887 105.02 171.14 104.802 171.334C104.583 171.528 104.313 171.655 104.025 171.699C103.736 171.743 103.441 171.703 103.174 171.583C102.908 171.464 102.682 171.27 102.523 171.024C102.364 170.779 102.28 170.493 102.28 170.201L102.279 170.201Z" fill="#E6E6E6"/>
<path d="M149.855 160.718L151.797 166.227L145.795 166.7L146.324 160.718H149.855Z" fill="#ED9DA0"/>
<path d="M124.241 164.968V172.524H117.349L119.293 164.968H124.241Z" fill="#ED9DA0"/>
<path d="M145.367 110.034L147.886 133.96L150.882 162.706L145.72 163.29L132.618 118.848L125.85 139.31L124.589 166.699H118.135L117.347 153.95C117.347 153.95 117.819 111.451 120.496 110.034C123.173 108.618 145.367 110.034 145.367 110.034Z" fill="#2F2E41"/>
<path d="M121.824 168.519C121.824 168.519 124.516 168.116 124.516 168.25C124.516 168.385 127.745 177.132 124.516 176.997C121.286 176.862 109.039 175.113 109.847 171.883C110.656 168.654 114.692 169.596 114.692 169.596L118.326 167.578L121.824 168.519Z" fill="#2F2E41"/>
<path d="M148.324 165.732C146.777 165.9 145.633 165.328 145.633 165.463C145.633 165.597 142.403 172.535 145.633 172.401C148.862 172.266 160.169 172.324 159.36 169.095C158.552 165.865 155.457 166.808 155.457 166.808L151.823 164.789C151.823 164.789 149.871 165.564 148.324 165.732Z" fill="#2F2E41"/>
<path d="M130.711 64.8304C129.418 64.4594 128.281 63.6775 127.471 62.603C126.661 61.5285 126.223 60.2196 126.223 58.8742C126.223 57.2312 126.876 55.6554 128.038 54.4937C129.2 53.3319 130.775 52.6792 132.418 52.6792C134.061 52.6792 135.637 53.3319 136.799 54.4937C137.961 55.6554 138.613 57.2312 138.613 58.8742C138.615 59.9462 138.337 61.0002 137.807 61.9321C138.26 65.1934 139.001 69.4196 139.859 69.8958C141.276 70.6831 128.998 71.4697 128.998 71.4697C128.998 71.4697 130.052 67.9147 130.711 64.8304Z" fill="#ED9DA0"/>
<path d="M119.081 110.978L123.959 84.5343L123.974 83.1327C122.609 83.2913 121.276 83.6574 120.022 84.2184C120.054 80.5852 120.317 76.9576 120.81 73.3578C121.215 70.6082 122.909 69.604 124.459 69.2776C125.585 68.3191 129.354 65.4608 133.562 66.1182C138.599 66.906 142.219 67.8499 142.219 67.8499C142.219 67.8499 146.513 70.1274 148.759 72.6575C150.567 74.5389 151.888 76.8329 152.608 79.3404C153.867 83.7479 153.396 86.7387 153.396 86.7387L148.028 87.6332C147.59 89.6028 147.257 90.988 147.257 90.988C147.257 90.988 145.84 111.292 145.682 111.292C145.525 111.292 119.081 110.978 119.081 110.978Z" fill="#39B772"/>
<path d="M125.147 107.457C126.167 107.732 127.926 107.351 129.761 106.75C132.084 105.945 134.352 104.991 136.553 103.895C136.553 103.895 147.887 99.3302 151.19 96.9692C154.494 94.6081 152.893 86.7378 152.893 86.7378H147.891L147.57 92.5623L135.135 100.589C133.181 100.772 131.252 101.16 129.379 101.746C127.285 102.434 125.252 103.506 124.517 105.151C124.402 105.402 124.32 105.667 124.274 105.939C124.126 106.809 124.478 107.274 125.147 107.457Z" fill="#ED9DA0"/>
<path d="M124.426 82.7339L127.737 90.5161L129.304 111.1C129.304 111.1 137.968 121.525 133.091 121.84C128.213 122.154 125.535 111.608 125.535 111.608C125.535 111.608 120.656 94.9235 120.813 91.4605C120.97 87.9975 120.119 83.9449 120.119 83.9449L124.426 82.7339Z" fill="#ED9DA0"/>
<path d="M127.582 51.1649C128.389 50.7589 129.304 50.6192 130.196 50.7659C131.077 50.8736 131.997 51.1277 132.832 50.8403C133.783 50.503 134.501 49.4863 135.503 49.5507C135.929 49.6079 136.331 49.7829 136.662 50.0559C137.973 51.0015 138.973 52.315 139.536 53.8298C139.649 54.2472 139.84 54.6391 140.1 54.9844C140.273 55.1398 140.437 55.3042 140.592 55.4769C140.746 55.7159 140.837 55.9895 140.858 56.2727C141.059 57.8329 140.685 59.413 139.806 60.7173C139.285 61.4872 138.6 62.1314 138.062 62.9008C137.825 63.1807 137.57 63.446 137.3 63.695C137.3 63.695 136.293 64.3114 136.205 63.9652C136.08 63.4718 135.379 63.425 135.395 62.9097C135.429 61.8976 136.001 61.0641 135.504 60.1809C135.196 59.6351 134.486 59.0954 134.01 59.4991C133.822 59.6543 133.745 59.9057 133.572 60.0744C133.233 60.4031 132.624 60.2819 132.317 59.9205C132.034 59.5356 130.141 58.3453 130.195 57.8712C130.291 55.7106 131.219 55.3577 128.832 55.4734C127.943 55.5166 127.223 54.9034 126.657 54.1073C125.91 53.0579 126.595 51.7265 127.582 51.1649Z" fill="#090814"/>
<path d="M102.205 48.9687L75.2405 52.7583C74.326 52.8858 73.3982 52.6454 72.6607 52.0897C71.9232 51.534 71.4363 50.7084 71.3067 49.7942L66.8562 18.1268C66.7286 17.2122 66.9691 16.2844 67.5249 15.5469C68.0806 14.8094 68.9062 14.3225 69.8205 14.193L94.9062 10.6674L100.829 14.165L105.168 45.0353C105.296 45.9499 105.055 46.8778 104.499 47.6153C103.944 48.3529 103.118 48.8398 102.204 48.9693L102.205 48.9687Z" fill="#090814"/>
<path d="M69.96 15.1861C69.309 15.2783 68.7211 15.6251 68.3253 16.1502C67.9296 16.6754 67.7583 17.3361 67.8491 17.9874L72.2996 49.6543C72.3918 50.3054 72.7385 50.8933 73.2637 51.289C73.7889 51.6848 74.4496 51.856 75.1009 51.7652L102.065 47.9757C102.716 47.8833 103.304 47.5365 103.699 47.0114C104.095 46.4863 104.266 45.8256 104.175 45.1744L99.9042 14.7831L94.6984 11.7093L69.96 15.1861Z" fill="#F2F2F2"/>
<path d="M92.9736 21.3408L80.6967 23.0662C80.5445 23.0876 80.39 23.0477 80.2672 22.9552C80.1445 22.8626 80.0635 22.7252 80.0421 22.573C80.0207 22.4207 80.0606 22.2663 80.1532 22.1435C80.2457 22.0207 80.3831 21.9398 80.5354 21.9184L92.8122 20.193C92.9645 20.1716 93.1189 20.2115 93.2417 20.304C93.3645 20.3965 93.4454 20.534 93.4668 20.6862C93.4882 20.8384 93.4483 20.9929 93.3558 21.1157C93.2633 21.2384 93.1258 21.3194 92.9736 21.3408Z" fill="#39B772"/>
<path d="M95.6151 22.9459L80.9691 25.0042C80.8169 25.0256 80.6624 24.9856 80.5397 24.8931C80.4169 24.8006 80.3359 24.6632 80.3145 24.5109C80.2932 24.3587 80.3331 24.2042 80.4256 24.0815C80.5181 23.9587 80.6556 23.8777 80.8078 23.8564L95.4538 21.798C95.606 21.7766 95.7605 21.8166 95.8832 21.9091C96.006 22.0016 96.087 22.139 96.1084 22.2913C96.1298 22.4435 96.0898 22.598 95.9973 22.7207C95.9048 22.8435 95.7673 22.9245 95.6151 22.9459Z" fill="#39B772"/>
<path d="M94.0335 28.879L81.7566 30.6044C81.6044 30.6258 81.4669 30.7068 81.3744 30.8295C81.2819 30.9523 81.2419 31.1068 81.2633 31.259C81.2847 31.4112 81.3657 31.5487 81.4885 31.6412C81.6112 31.7337 81.7657 31.7736 81.9179 31.7523L94.1948 30.0269C94.347 30.0055 94.4845 29.9245 94.577 29.8017C94.6695 29.679 94.7095 29.5245 94.6881 29.3723C94.6667 29.22 94.5857 29.0826 94.4629 28.9901C94.3402 28.8976 94.1857 28.8576 94.0335 28.879Z" fill="#CCCCCC"/>
<path d="M96.675 30.485L82.0291 32.5434C81.8769 32.5648 81.7394 32.6457 81.6469 32.7685C81.5544 32.8913 81.5144 33.0457 81.5358 33.198C81.5572 33.3502 81.6382 33.4876 81.7609 33.5802C81.8837 33.6727 82.0382 33.7126 82.1904 33.6912L96.836 31.6329C96.9882 31.6115 97.1257 31.5305 97.2182 31.4078C97.3107 31.285 97.3506 31.1305 97.3292 30.9783C97.3078 30.8261 97.2268 30.6886 97.1041 30.5961C96.9813 30.5036 96.8268 30.4637 96.6746 30.4851L96.675 30.485Z" fill="#CCCCCC"/>
<path d="M95.4153 38.7144L83.1384 40.4398C82.9862 40.4611 82.8318 40.4212 82.709 40.3287C82.5862 40.2362 82.5053 40.0987 82.4839 39.9465C82.4625 39.7943 82.5024 39.6398 82.5949 39.517C82.6874 39.3943 82.8249 39.3133 82.9771 39.2919L95.254 37.5665C95.4062 37.5451 95.5607 37.5851 95.6835 37.6776C95.8062 37.7701 95.8872 37.9075 95.9086 38.0598C95.93 38.212 95.89 38.3665 95.7975 38.4892C95.705 38.612 95.5676 38.693 95.4153 38.7144Z" fill="#CCCCCC"/>
<path d="M98.0568 40.3199L83.4108 42.3782C83.2586 42.3996 83.1042 42.3597 82.9814 42.2672C82.8586 42.1747 82.7777 42.0372 82.7563 41.885C82.7349 41.7327 82.7748 41.5783 82.8673 41.4555C82.9598 41.3328 83.0973 41.2518 83.2495 41.2304L97.8955 39.172C98.0477 39.1506 98.2022 39.1906 98.325 39.2831C98.4477 39.3756 98.5287 39.5131 98.5501 39.6653C98.5715 39.8175 98.5315 39.972 98.439 40.0947C98.3465 40.2175 98.209 40.2985 98.0568 40.3199Z" fill="#CCCCCC"/>
<path d="M75.9257 26.2101C77.0468 26.0526 77.8279 25.016 77.6703 23.8949C77.5128 22.7738 76.4762 21.9927 75.3551 22.1503C74.234 22.3078 73.4529 23.3444 73.6104 24.4655C73.768 25.5866 74.8046 26.3677 75.9257 26.2101Z" fill="#39B772"/>
<path d="M75.5484 24.9823C75.5027 24.9888 75.4562 24.9803 75.4157 24.958L75.4132 24.9565L74.8849 24.6589C74.8596 24.6455 74.8373 24.6271 74.8193 24.6049C74.8012 24.5828 74.7878 24.5572 74.7798 24.5297C74.7718 24.5023 74.7693 24.4735 74.7726 24.4451C74.7759 24.4167 74.7848 24.3892 74.7989 24.3643C74.813 24.3394 74.8319 24.3176 74.8545 24.3001C74.8772 24.2826 74.9031 24.2699 74.9307 24.2626C74.9584 24.2553 74.9872 24.2536 75.0155 24.2576C75.0438 24.2616 75.0711 24.2712 75.0956 24.2859L75.4381 24.4795L76.0341 23.4245C76.0479 23.4001 76.0664 23.3786 76.0885 23.3612C76.1107 23.3439 76.136 23.3311 76.1631 23.3236C76.1902 23.3161 76.2185 23.314 76.2464 23.3174C76.2743 23.3209 76.3013 23.3298 76.3257 23.3436L76.3204 23.3504L76.3259 23.3434C76.3753 23.3714 76.4115 23.4178 76.4267 23.4725C76.4418 23.5272 76.4347 23.5857 76.4068 23.6351L75.7053 24.8768C75.689 24.9053 75.6664 24.9298 75.6391 24.9482C75.6118 24.9667 75.5807 24.9786 75.5481 24.983L75.5484 24.9823Z" fill="white"/>
<path d="M79.0999 32.5519C79.1374 32.8185 79.1221 33.0899 79.0548 33.3506C78.9875 33.6113 78.8694 33.8561 78.7075 34.0712C78.5455 34.2863 78.3427 34.4673 78.1107 34.604C77.8788 34.7407 77.6221 34.8304 77.3555 34.8679C77.3382 34.8707 77.3206 34.8725 77.3031 34.8732C76.9025 34.919 76.4973 34.8457 76.1383 34.6624C75.7792 34.4791 75.4821 34.194 75.2842 33.8427C75.0864 33.4915 74.9965 33.0897 75.0258 32.6876C75.0552 32.2855 75.2024 31.901 75.4492 31.5822C75.696 31.2633 76.0313 31.0244 76.4132 30.8952C76.7951 30.766 77.2066 30.7523 77.5963 30.8558C77.9859 30.9593 78.3364 31.1754 78.6038 31.4771C78.8713 31.7788 79.0438 32.1526 79.0999 32.5519Z" fill="#39B772"/>
<path d="M78.3674 43.5837C79.4885 43.4261 80.2696 42.3896 80.112 41.2684C79.9545 40.1473 78.9179 39.3662 77.7968 39.5238C76.6757 39.6814 75.8946 40.7179 76.0521 41.839C76.2097 42.9601 77.2463 43.7412 78.3674 43.5837Z" fill="#39B772"/>
<path d="M100.746 14.3163L96.5718 14.9029C96.2674 14.9457 95.9585 14.8658 95.713 14.6808C95.4675 14.4959 95.3055 14.221 95.2627 13.9166L94.8294 10.8335C94.8275 10.82 94.8295 10.8063 94.835 10.7939C94.8406 10.7814 94.8495 10.7708 94.8608 10.7632C94.8721 10.7556 94.8853 10.7514 94.899 10.7509C94.9126 10.7505 94.926 10.7539 94.9378 10.7607L100.772 14.1806C100.785 14.1883 100.795 14.1997 100.801 14.2134C100.808 14.2272 100.809 14.2424 100.806 14.2571C100.803 14.2718 100.796 14.2853 100.785 14.2956C100.774 14.3059 100.76 14.3127 100.746 14.3148L100.746 14.3163Z" fill="#090814"/>
<path d="M41.151 59.5181L55.7481 47.0327H65.5878V47.2159H55.8158L41.2702 59.6577L41.151 59.5181Z" fill="#2F2E41"/>
</svg>
