<svg width="86" height="86" viewBox="0 0 86 86" fill="none" xmlns="http://www.w3.org/2000/svg">
<path d="M17.0179 54.4847L17.2267 55.0743C17.2 55.0068 17.1236 54.8005 17.0179 54.4847ZM25.2829 41.1218C25.6497 37.9533 26.8952 36.1793 29.2423 34.3607C32.6005 31.8978 36.7955 33.291 36.7955 33.291V25.0259C37.8153 24.9987 38.8355 25.0618 39.8442 25.2144V35.8507C39.8442 35.8507 35.6506 34.4575 32.2923 36.9217C29.9465 38.739 28.6985 40.5143 28.333 43.6828C28.3215 45.4033 28.631 47.6523 30.0561 49.597C29.7037 49.4085 29.3446 49.1937 28.9787 48.9526C25.8395 46.7532 25.2677 43.4536 25.2829 41.1218ZM57.1652 9.74381C54.8551 7.10256 53.9814 4.43583 53.6656 2.5625H56.5718C56.5718 2.5625 55.9923 7.47442 60.2153 12.3048L60.2738 12.3698C59.1357 11.6228 58.0919 10.7411 57.1652 9.74381ZM71.1649 17.232V27.6544C71.1649 27.6544 67.4564 27.5029 64.712 26.7744C60.88 25.7556 58.4171 24.193 58.4171 24.193C58.4171 24.193 56.7157 23.0787 56.5781 23.001V44.5233C56.5781 45.7217 56.2636 48.7144 55.3046 51.2105C54.0528 54.4758 52.1209 56.6191 51.7655 57.0572C51.7655 57.0572 49.4159 59.9544 45.2707 61.9054C41.5342 63.6654 38.2536 63.6208 37.273 63.6654C37.273 63.6654 31.6021 63.8997 26.4992 60.4396C25.3957 59.677 24.3656 58.8132 23.4224 57.8595L23.4478 57.8786C28.552 61.3387 34.2217 61.1044 34.2217 61.1044C35.2036 61.0598 38.4841 61.1044 42.2193 59.3444C46.3608 57.3934 48.7142 54.4962 48.7142 54.4962C49.0657 54.0581 51.0065 51.9148 52.2533 48.6482C53.2097 46.1534 53.5268 43.1594 53.5268 41.961V20.4413C53.6643 20.5202 55.3645 21.6346 55.3645 21.6346C55.3645 21.6346 57.8287 23.1984 61.6607 24.216C64.4064 24.9444 68.1136 25.096 68.1136 25.096V16.9289C69.382 17.2257 70.4632 17.3059 71.1649 17.232Z" fill="#EE1D52"/>
<path d="M68.1148 16.9289V25.0934C68.1148 25.0934 64.4077 24.9419 61.662 24.2134C57.83 23.1946 55.3658 21.632 55.3658 21.632C55.3658 21.632 53.6656 20.5177 53.5281 20.4387V41.9636C53.5281 43.1619 53.2135 46.156 52.2546 48.6508C51.0027 51.9173 49.0708 54.0606 48.7155 54.4987C48.7155 54.4987 46.3646 57.3959 42.2206 59.3469C38.4854 61.1069 35.2048 61.0624 34.223 61.1069C34.223 61.1069 28.5533 61.3413 23.4491 57.8811L23.4236 57.862C22.8847 57.3176 22.3775 56.7427 21.9043 56.1403C20.2755 54.0683 19.2771 51.618 19.0262 50.9189C19.0258 50.9159 19.0258 50.9129 19.0262 50.91C18.6225 49.695 17.7743 46.7774 17.8902 43.9515C18.0953 38.9657 19.7763 35.9055 20.2208 35.1388C21.3979 33.0482 22.9288 31.1777 24.7455 29.6105C26.3487 28.2582 28.1657 27.1823 30.1223 26.4268C32.2374 25.5397 34.5022 25.0643 36.7955 25.0259V33.291C36.7955 33.291 32.6005 31.9028 29.2436 34.3607C26.8965 36.1793 25.651 37.9533 25.2842 41.1218C25.2689 43.4536 25.8407 46.7532 28.9774 48.9538C29.3433 49.1958 29.7024 49.4106 30.0548 49.5982C30.6028 50.3414 31.2697 50.989 32.0287 51.5149C35.0928 53.5385 37.6602 53.6798 40.9433 52.3656C43.1324 51.4869 44.7804 49.5065 45.5445 47.3123C46.0246 45.942 46.0182 44.5628 46.0182 43.1365V2.5625H53.6593C53.9751 4.43583 54.8487 7.10256 57.1589 9.74381C58.0856 10.7411 59.1293 11.6228 60.2675 12.3698C60.6037 12.7327 62.3229 14.5271 64.5299 15.6287C65.6711 16.1981 66.874 16.6344 68.1148 16.9289Z" fill="black"/>
<path d="M15.985 48.3804V48.3867L16.1735 48.9229C16.1519 48.8605 16.0818 48.6707 15.985 48.3804Z" fill="#69C9D0"/>
<path d="M30.1223 26.4268C28.1657 27.1823 26.3486 28.2583 24.7455 29.6106C22.9282 31.1812 21.3976 33.0557 20.222 35.1503C19.7776 35.9144 18.0965 38.9772 17.8915 43.963C17.7756 46.7889 18.6238 49.7065 19.0275 50.9214C19.027 50.9244 19.027 50.9274 19.0275 50.9304C19.2822 51.6232 20.2768 54.0734 21.9056 56.1517C22.3787 56.7542 22.886 57.3291 23.4249 57.8735C21.6983 56.6794 20.1584 55.2356 18.8555 53.5894C17.2407 51.5353 16.2448 49.1105 15.9851 48.3948C15.9847 48.3897 15.9847 48.3846 15.9851 48.3795V48.3706C15.5801 47.157 14.7294 44.2381 14.8478 41.4083C15.0528 36.4226 16.7339 33.3623 17.1783 32.5957C18.3536 30.5008 19.8843 28.6263 21.7018 27.0559C23.3046 25.7031 25.1218 24.6271 27.0786 23.8721C28.2991 23.3657 29.5706 22.9921 30.8711 22.7578C32.831 22.4157 34.8327 22.386 36.8018 22.6699V25.0259C34.5064 25.0635 32.2393 25.539 30.1223 26.4268Z" fill="#69C9D0"/>
<path d="M53.6657 2.5623H46.0246V43.1375C46.0246 44.5639 46.0246 45.9393 45.5509 47.3134C44.7791 49.5064 43.1376 51.4867 40.9497 52.3654C37.6653 53.6847 35.0979 53.5383 32.0351 51.5147C31.2748 50.9912 30.6061 50.3457 30.0561 49.6044C32.6655 50.9964 35.0011 50.9722 37.8945 49.8107C40.0811 48.932 41.7252 46.9517 42.4944 44.7574C42.9758 43.3871 42.9695 42.0079 42.9695 40.5829V0H53.5205C53.5205 0 53.402 1.00862 53.6657 2.5623ZM68.1149 14.6708V16.9287C66.8762 16.6337 65.6755 16.1974 64.5363 15.6285C62.3293 14.5269 60.6101 12.7325 60.2739 12.3696C60.664 12.6257 61.0688 12.8588 61.4863 13.0675C64.1696 14.4072 66.8121 14.8071 68.1149 14.6708Z" fill="#69C9D0"/>
<path d="M53.9292 79.5041C53.9285 79.7945 53.9714 80.0834 54.0566 80.3611C54.0608 80.3807 54.0667 80.3999 54.0744 80.4184C54.2779 81.0754 54.6864 81.6499 55.2401 82.0578C55.7938 82.4657 56.4635 82.6856 57.1512 82.6853V85.9442C55.5644 85.9442 54.4285 86.0002 52.6939 84.9776C50.7276 83.8111 49.6197 81.6779 49.6197 79.4633C49.6197 77.1786 50.8601 74.8901 52.9626 73.7873C54.4909 72.9875 55.6485 72.9824 57.155 72.9824V76.2401C56.3002 76.2401 55.4803 76.5796 54.8759 77.1841C54.2714 77.7886 53.9318 78.6084 53.9318 79.4633L53.9292 79.5041Z" fill="#69C9D0"/>
<path d="M60.3987 79.5041C60.3988 79.7945 60.3559 80.0833 60.2713 80.3611C60.2713 80.3802 60.2599 80.3993 60.2535 80.4184C60.0497 81.0751 59.6411 81.6494 59.0875 82.0573C58.5339 82.4651 57.8643 82.6852 57.1767 82.6853V85.9442C58.7622 85.9442 59.8995 86.0002 61.6276 84.9776C63.6003 83.8111 64.7108 81.6779 64.7108 79.4633C64.7108 77.1786 63.4704 74.8901 61.3678 73.7873C59.8396 72.9875 58.682 72.9824 57.1767 72.9824V76.2401C58.0313 76.2404 58.8509 76.5801 59.4551 77.1846C60.0593 77.789 60.3987 78.6087 60.3987 79.4633V79.5041Z" fill="#EE1D52"/>
<path d="M7.27686 70.0264H19.2109L18.108 73.3095H14.9803V85.8752H11.1432V73.3095H7.27686V70.0264ZM38.9044 70.0264V73.3095H42.7708V85.8752H46.613V73.3095H49.7356L50.8385 70.0264H38.9044ZM21.8076 73.7679C22.1753 73.7677 22.5347 73.6584 22.8404 73.4539C23.146 73.2494 23.3841 72.9588 23.5246 72.619C23.6651 72.2791 23.7016 71.9053 23.6297 71.5446C23.5577 71.184 23.3804 70.8528 23.1201 70.593C22.8599 70.3331 22.5285 70.1563 22.1678 70.0848C21.8071 70.0133 21.4333 70.0504 21.0936 70.1913C20.754 70.3323 20.4637 70.5708 20.2596 70.8767C20.0555 71.1826 19.9467 71.5422 19.947 71.9099C19.947 72.1541 19.9951 72.3959 20.0887 72.6215C20.1822 72.8471 20.3193 73.0521 20.4921 73.2246C20.6649 73.3972 20.87 73.534 21.0958 73.6272C21.3215 73.7205 21.5634 73.7683 21.8076 73.7679ZM19.947 85.8752H23.714V75.0822H19.947V85.8752ZM37.2667 73.6737H32.8604L29.0628 77.4713V70.0391H25.3199L25.3085 85.8752H29.087V81.749L30.2624 80.678L33.9301 85.8701H37.9697L32.6566 78.2774L37.2667 73.6737ZM73.405 78.28L78.0113 73.6737H73.6062L69.8074 77.4713V70.0391H66.0658L66.048 85.8752H69.8278V81.749L71.0147 80.678L74.6824 85.8701H78.7232L73.405 78.28ZM63.7187 79.4605C63.7187 83.0391 60.7782 85.9414 57.1513 85.9414C53.5243 85.9414 50.5838 83.0391 50.5838 79.4605C50.5838 75.882 53.5243 72.9796 57.1513 72.9796C60.7782 72.9796 63.7187 75.8832 63.7187 79.4631V79.4605ZM60.3732 79.4605C60.3732 78.8233 60.1843 78.2003 59.8302 77.6705C59.4762 77.1406 58.973 76.7277 58.3842 76.4838C57.7955 76.2399 57.1477 76.1761 56.5227 76.3005C55.8977 76.4248 55.3236 76.7316 54.873 77.1822C54.4224 77.6328 54.1155 78.2069 53.9912 78.8319C53.8669 79.4569 53.9307 80.1048 54.1745 80.6935C54.4184 81.2823 54.8314 81.7855 55.3612 82.1395C55.8911 82.4935 56.514 82.6825 57.1513 82.6825C58.0053 82.6825 58.8245 82.3434 59.4286 81.7397C60.0328 81.136 60.3726 80.3171 60.3732 79.4631V79.4605Z" fill="black"/>
</svg>
